<svg xmlns="http://www.w3.org/2000/svg" viewBox="0 0 1200 1100" font-family="Inter, -apple-system, sans-serif">
  <defs>
    <style>
      .bg { fill: #0f172a; }
      .sidebar { fill: #1e293b; }
      .divider { stroke: #334155; stroke-width: 1; }
    </style>
  </defs>

  <rect width="1200" height="1100" class="bg"/>

  <!-- Sidebar -->
  <rect x="0" y="0" width="200" height="1100" class="sidebar"/>
  <text x="24" y="36" fill="#f8fafc" font-size="16" font-weight="700">GitOps Dashboard</text>
  <text x="24" y="52" fill="#94a3b8" font-size="12">Platform Observability</text>
  <line x1="16" y1="68" x2="184" y2="68" class="divider"/>

  <!-- Project Scope: payments selected -->
  <text x="24" y="88" fill="#94a3b8" font-size="9" font-weight="600" letter-spacing="0.05em">PROJECT SCOPE</text>
  <rect x="12" y="94" width="176" height="32" fill="#0f172a" rx="6" stroke="#22c55e" stroke-width="1.5"/>
  <text x="24" y="114" fill="#22c55e" font-size="12" font-weight="600">payments</text>
  <text x="170" y="114" fill="#475569" font-size="12">&#x25BE;</text>
  <text x="24" y="134" fill="#64748b" font-size="9">namespace: payments</text>

  <line x1="16" y1="148" x2="184" y2="148" class="divider"/>
  <text x="40" y="170" fill="#cbd5e1" font-size="13">Overview</text>
  <text x="40" y="198" fill="#cbd5e1" font-size="13">App Status</text>
  <text x="40" y="226" fill="#cbd5e1" font-size="13">Image Promotion</text>
  <rect x="8" y="236" width="184" height="30" fill="#1d4ed8" rx="6" opacity="0.3"/>
  <text x="40" y="255" fill="#38bdf8" font-size="13" font-weight="600">Metrics</text>
  <text x="40" y="283" fill="#cbd5e1" font-size="13">Network Status</text>

  <!-- Top Bar -->
  <rect x="216" y="12" width="968" height="44" fill="#1e293b" rx="8"/>
  <rect x="228" y="22" width="80" height="24" fill="#052e16" rx="4" stroke="#22c55e" stroke-width="1"/>
  <text x="240" y="38" fill="#22c55e" font-size="10" font-weight="600">payments</text>
  <text x="318" y="38" fill="#475569" font-size="10">|</text>

  <text x="334" y="28" fill="#94a3b8" font-size="11" font-weight="600">Environment</text>
  <rect x="334" y="34" width="36" height="18" rx="6" fill="#334155"/><text x="339" y="47" fill="#e2e8f0" font-size="11" font-weight="500">ALL</text>
  <rect x="376" y="34" width="36" height="18" rx="6" fill="#334155"/><text x="381" y="47" fill="#e2e8f0" font-size="11" font-weight="500">DEV</text>
  <rect x="418" y="34" width="50" height="18" rx="6" fill="#334155"/><text x="423" y="47" fill="#e2e8f0" font-size="11" font-weight="500">STAGE</text>
  <rect x="474" y="34" width="44" height="18" rx="6" fill="#1d4ed8"/><text x="479" y="47" fill="#e2e8f0" font-size="11" font-weight="500">PROD</text>

  <line x1="534" y1="18" x2="534" y2="50" class="divider"/>
  <text x="550" y="28" fill="#94a3b8" font-size="11" font-weight="600">Region</text>
  <rect x="550" y="34" width="42" height="18" rx="6" fill="#1d4ed8"/><text x="555" y="47" fill="#e2e8f0" font-size="11" font-weight="500">BOTH</text>

  <text x="1060" y="40" fill="#64748b" font-size="10">Prometheus: 45s ago</text>

  <!-- Page Title -->
  <text x="232" y="82" fill="#f8fafc" font-size="16" font-weight="700">CPU &amp; Memory Metrics</text>
  <text x="480" y="82" fill="#94a3b8" font-size="12">Project: payments | Namespace: payments | PROD — Both Regions</text>
  <text x="232" y="98" fill="#64748b" font-size="10">Workload-level view (Deployments, StatefulSets, Jobs) — MT-01, MT-04</text>

  <!-- ============================================================ -->
  <!-- SECTION 1: WORKLOAD-LEVEL REQUEST/LIMIT TABLE                -->
  <!-- ============================================================ -->
  <rect x="216" y="108" width="968" height="268" fill="#1e293b" rx="8"/>
  <text x="232" y="130" fill="#94a3b8" font-size="11" font-weight="600">WORKLOAD REQUEST / LIMIT RATIO</text>
  <text x="1168" y="130" fill="#64748b" font-size="10" text-anchor="end">namespace: payments | PROD — Both Regions</text>

  <!-- Column headers -->
  <rect x="232" y="138" width="936" height="30" fill="#0f172a" rx="4"/>
  <text x="248" y="158" fill="#64748b" font-size="8" font-weight="600">WORKLOAD</text>
  <text x="370" y="158" fill="#64748b" font-size="8" font-weight="600">TYPE</text>

  <rect x="420" y="140" width="210" height="12" fill="#1d4ed8" rx="2" opacity="0.2"/>
  <text x="525" y="150" fill="#3b82f6" font-size="7" font-weight="700" text-anchor="middle">CPU</text>
  <text x="455" y="164" fill="#64748b" font-size="7" font-weight="600" text-anchor="middle">CURRENT</text>
  <text x="530" y="164" fill="#64748b" font-size="7" font-weight="600" text-anchor="middle">REQ/LIM</text>
  <text x="610" y="164" fill="#64748b" font-size="7" font-weight="600" text-anchor="middle">7d MAX</text>

  <rect x="650" y="140" width="210" height="12" fill="#7c3aed" rx="2" opacity="0.2"/>
  <text x="755" y="150" fill="#8b5cf6" font-size="7" font-weight="700" text-anchor="middle">MEMORY</text>
  <text x="685" y="164" fill="#64748b" font-size="7" font-weight="600" text-anchor="middle">CURRENT</text>
  <text x="760" y="164" fill="#64748b" font-size="7" font-weight="600" text-anchor="middle">REQ/LIM</text>
  <text x="840" y="164" fill="#64748b" font-size="7" font-weight="600" text-anchor="middle">7d MAX</text>

  <text x="920" y="153" fill="#64748b" font-size="8" font-weight="600" text-anchor="middle">OOMs</text>
  <text x="920" y="163" fill="#64748b" font-size="7" text-anchor="middle">(7d)</text>

  <text x="1010" y="158" fill="#64748b" font-size="8" font-weight="600" text-anchor="middle">REPLICAS</text>

  <text x="1110" y="158" fill="#64748b" font-size="8" font-weight="600" text-anchor="middle">STATUS</text>

  <line x1="232" y1="170" x2="1168" y2="170" class="divider"/>

  <!-- Row 1: payment-service Deployment -->
  <rect x="232" y="172" width="936" height="30" fill="#1e293b"/>
  <text x="248" y="191" fill="#e2e8f0" font-size="11" font-weight="500">payment-service</text>
  <rect x="370" y="182" width="38" height="14" fill="#0f172a" rx="2"/>
  <text x="389" y="193" fill="#3b82f6" font-size="8" font-weight="600" text-anchor="middle">Deploy</text>

  <text x="455" y="191" fill="#cbd5e1" font-size="9" text-anchor="middle">850m</text>
  <rect x="490" y="184" width="80" height="8" fill="#0f172a" rx="2"/>
  <rect x="490" y="184" width="56" height="8" fill="#3b82f6" rx="2"/>
  <text x="530" y="200" fill="#94a3b8" font-size="7" text-anchor="middle">850m/1.2 (71%)</text>
  <text x="610" y="191" fill="#94a3b8" font-size="9" text-anchor="middle">1.1 (92%)</text>

  <text x="685" y="191" fill="#cbd5e1" font-size="9" text-anchor="middle">1.2 GiB</text>
  <rect x="720" y="184" width="80" height="8" fill="#0f172a" rx="2"/>
  <rect x="720" y="184" width="48" height="8" fill="#8b5cf6" rx="2"/>
  <text x="760" y="200" fill="#94a3b8" font-size="7" text-anchor="middle">1.2/2.0 (60%)</text>
  <text x="840" y="191" fill="#94a3b8" font-size="9" text-anchor="middle">1.6 (80%)</text>

  <text x="920" y="191" fill="#22c55e" font-size="10" font-weight="600" text-anchor="middle">0</text>
  <text x="1010" y="191" fill="#94a3b8" font-size="10" text-anchor="middle">3/3</text>
  <rect x="1070" y="180" width="50" height="16" fill="#052e16" rx="3"/>
  <text x="1095" y="192" fill="#22c55e" font-size="8" font-weight="600" text-anchor="middle">OK</text>

  <!-- Row 2: payment-gateway Deployment (high CPU) -->
  <rect x="232" y="202" width="936" height="30" fill="#172032"/>
  <text x="248" y="221" fill="#e2e8f0" font-size="11" font-weight="500">payment-gateway</text>
  <rect x="370" y="212" width="38" height="14" fill="#0f172a" rx="2"/>
  <text x="389" y="223" fill="#3b82f6" font-size="8" font-weight="600" text-anchor="middle">Deploy</text>

  <text x="455" y="221" fill="#f59e0b" font-size="9" font-weight="500" text-anchor="middle">950m</text>
  <rect x="490" y="214" width="80" height="8" fill="#0f172a" rx="2"/>
  <rect x="490" y="214" width="68" height="8" fill="#f59e0b" rx="2"/>
  <text x="530" y="230" fill="#f59e0b" font-size="7" text-anchor="middle">950m/1.0 (95%)</text>
  <text x="610" y="221" fill="#ef4444" font-size="9" font-weight="600" text-anchor="middle">1.05 (105%)</text>

  <text x="685" y="221" fill="#cbd5e1" font-size="9" text-anchor="middle">1.8 GiB</text>
  <rect x="720" y="214" width="80" height="8" fill="#0f172a" rx="2"/>
  <rect x="720" y="214" width="58" height="8" fill="#8b5cf6" rx="2"/>
  <text x="760" y="230" fill="#94a3b8" font-size="7" text-anchor="middle">1.8/2.5 (72%)</text>
  <text x="840" y="221" fill="#f59e0b" font-size="9" font-weight="500" text-anchor="middle">2.3 (92%)</text>

  <text x="920" y="221" fill="#22c55e" font-size="10" font-weight="600" text-anchor="middle">0</text>
  <text x="1010" y="221" fill="#94a3b8" font-size="10" text-anchor="middle">2/2</text>
  <rect x="1065" y="210" width="60" height="16" fill="#451a03" rx="3"/>
  <text x="1095" y="222" fill="#f59e0b" font-size="8" font-weight="600" text-anchor="middle">CPU HIGH</text>

  <!-- Row 3: payment-processor Deployment (OOMs) -->
  <rect x="232" y="232" width="936" height="30" fill="#1e293b"/>
  <text x="248" y="251" fill="#e2e8f0" font-size="11" font-weight="500">payment-processor</text>
  <rect x="370" y="242" width="38" height="14" fill="#0f172a" rx="2"/>
  <text x="389" y="253" fill="#3b82f6" font-size="8" font-weight="600" text-anchor="middle">Deploy</text>

  <text x="455" y="251" fill="#cbd5e1" font-size="9" text-anchor="middle">400m</text>
  <rect x="490" y="244" width="80" height="8" fill="#0f172a" rx="2"/>
  <rect x="490" y="244" width="32" height="8" fill="#3b82f6" rx="2"/>
  <text x="530" y="260" fill="#94a3b8" font-size="7" text-anchor="middle">400m/1.0 (40%)</text>
  <text x="610" y="251" fill="#94a3b8" font-size="9" text-anchor="middle">0.7 (70%)</text>

  <text x="685" y="251" fill="#ef4444" font-size="9" font-weight="500" text-anchor="middle">780 MiB</text>
  <rect x="720" y="244" width="80" height="8" fill="#0f172a" rx="2"/>
  <rect x="720" y="244" width="62" height="8" fill="#ef4444" rx="2"/>
  <text x="760" y="260" fill="#ef4444" font-size="7" text-anchor="middle">780/1.0 GiB (78%)</text>
  <text x="840" y="251" fill="#ef4444" font-size="9" font-weight="600" text-anchor="middle">1.0 (100%)</text>

  <rect x="902" y="242" width="36" height="16" fill="#450a0a" rx="3"/>
  <text x="920" y="254" fill="#ef4444" font-size="10" font-weight="700" text-anchor="middle">4</text>
  <text x="1010" y="251" fill="#94a3b8" font-size="10" text-anchor="middle">3/3</text>
  <rect x="1065" y="240" width="60" height="16" fill="#450a0a" rx="3"/>
  <text x="1095" y="252" fill="#ef4444" font-size="8" font-weight="600" text-anchor="middle">OOM</text>

  <!-- Row 4: payment-webhook Deployment -->
  <rect x="232" y="262" width="936" height="30" fill="#172032"/>
  <text x="248" y="281" fill="#e2e8f0" font-size="11" font-weight="500">payment-webhook</text>
  <rect x="370" y="272" width="38" height="14" fill="#0f172a" rx="2"/>
  <text x="389" y="283" fill="#3b82f6" font-size="8" font-weight="600" text-anchor="middle">Deploy</text>

  <text x="455" y="281" fill="#cbd5e1" font-size="9" text-anchor="middle">200m</text>
  <rect x="490" y="274" width="80" height="8" fill="#0f172a" rx="2"/>
  <rect x="490" y="274" width="24" height="8" fill="#3b82f6" rx="2"/>
  <text x="530" y="290" fill="#94a3b8" font-size="7" text-anchor="middle">200m/500m (40%)</text>
  <text x="610" y="281" fill="#94a3b8" font-size="9" text-anchor="middle">350m (70%)</text>

  <text x="685" y="281" fill="#cbd5e1" font-size="9" text-anchor="middle">256 MiB</text>
  <rect x="720" y="274" width="80" height="8" fill="#0f172a" rx="2"/>
  <rect x="720" y="274" width="32" height="8" fill="#8b5cf6" rx="2"/>
  <text x="760" y="290" fill="#94a3b8" font-size="7" text-anchor="middle">256/640 MiB (40%)</text>
  <text x="840" y="281" fill="#94a3b8" font-size="9" text-anchor="middle">420 (66%)</text>

  <text x="920" y="281" fill="#22c55e" font-size="10" font-weight="600" text-anchor="middle">0</text>
  <text x="1010" y="281" fill="#94a3b8" font-size="10" text-anchor="middle">2/2</text>
  <rect x="1070" y="270" width="50" height="16" fill="#052e16" rx="3"/>
  <text x="1095" y="282" fill="#22c55e" font-size="8" font-weight="600" text-anchor="middle">OK</text>

  <!-- Row 5: payment-reconciler CronJob -->
  <rect x="232" y="292" width="936" height="30" fill="#1e293b"/>
  <text x="248" y="311" fill="#e2e8f0" font-size="11" font-weight="500">payment-reconciler</text>
  <rect x="370" y="302" width="50" height="14" fill="#0f172a" rx="2"/>
  <text x="395" y="313" fill="#f59e0b" font-size="8" font-weight="600" text-anchor="middle">CronJob</text>

  <text x="455" y="311" fill="#cbd5e1" font-size="9" text-anchor="middle">100m</text>
  <rect x="490" y="304" width="80" height="8" fill="#0f172a" rx="2"/>
  <rect x="490" y="304" width="16" height="8" fill="#3b82f6" rx="2"/>
  <text x="530" y="320" fill="#94a3b8" font-size="7" text-anchor="middle">100m/500m (20%)</text>
  <text x="610" y="311" fill="#94a3b8" font-size="9" text-anchor="middle">450m (90%)</text>

  <text x="685" y="311" fill="#cbd5e1" font-size="9" text-anchor="middle">128 MiB</text>
  <rect x="720" y="304" width="80" height="8" fill="#0f172a" rx="2"/>
  <rect x="720" y="304" width="20" height="8" fill="#8b5cf6" rx="2"/>
  <text x="760" y="320" fill="#94a3b8" font-size="7" text-anchor="middle">128/512 MiB (25%)</text>
  <text x="840" y="311" fill="#94a3b8" font-size="9" text-anchor="middle">480 (94%)</text>

  <text x="920" y="311" fill="#22c55e" font-size="10" font-weight="600" text-anchor="middle">0</text>
  <text x="1010" y="311" fill="#64748b" font-size="10" text-anchor="middle">0/1</text>
  <rect x="1070" y="300" width="50" height="16" fill="#052e16" rx="3"/>
  <text x="1095" y="312" fill="#22c55e" font-size="8" font-weight="600" text-anchor="middle">OK</text>

  <!-- Container drill-down example (expanded for payment-processor) -->
  <rect x="232" y="324" width="936" height="22" fill="#0f172a" rx="0"/>
  <text x="272" y="339" fill="#94a3b8" font-size="9" font-weight="600">CONTAINER BREAKDOWN — payment-processor (MT-04, MT-05)</text>

  <rect x="232" y="346" width="936" height="24" fill="#172032"/>
  <text x="280" y="362" fill="#64748b" font-size="10">&#x2514;</text>
  <text x="296" y="362" fill="#cbd5e1" font-size="10">processor (main)</text>
  <text x="530" y="362" fill="#94a3b8" font-size="8" text-anchor="middle">350m/800m (44%)</text>
  <text x="760" y="362" fill="#ef4444" font-size="8" font-weight="500" text-anchor="middle">720/768 MiB (94%)</text>
  <rect x="902" y="352" width="36" height="14" fill="#450a0a" rx="2"/>
  <text x="920" y="363" fill="#ef4444" font-size="9" font-weight="700" text-anchor="middle">4</text>
  <text x="1095" y="362" fill="#ef4444" font-size="8" text-anchor="middle">OOM source</text>

  <rect x="232" y="370" width="936" height="24" fill="#1e293b"/>
  <text x="280" y="386" fill="#64748b" font-size="10">&#x2514;</text>
  <text x="296" y="386" fill="#cbd5e1" font-size="10">istio-proxy (sidecar)</text>
  <text x="530" y="386" fill="#94a3b8" font-size="8" text-anchor="middle">50m/200m (25%)</text>
  <text x="760" y="386" fill="#94a3b8" font-size="8" text-anchor="middle">60/256 MiB (23%)</text>
  <text x="920" y="386" fill="#22c55e" font-size="9" font-weight="600" text-anchor="middle">0</text>
  <text x="1095" y="386" fill="#22c55e" font-size="8" text-anchor="middle">OK</text>

  <!-- ============================================================ -->
  <!-- SECTION 2: SPARKLINE TRENDS (per workload)                   -->
  <!-- ============================================================ -->
  <rect x="216" y="406" width="968" height="160" fill="#1e293b" rx="8"/>
  <text x="232" y="428" fill="#94a3b8" font-size="11" font-weight="600">WORKLOAD TRENDS — LAST 10 INTERVALS (MT-02)</text>

  <!-- payment-service CPU -->
  <text x="232" y="450" fill="#cbd5e1" font-size="10" font-weight="500">payment-service — CPU</text>
  <text x="560" y="450" fill="#64748b" font-size="9" text-anchor="end">avg 71% | 7d max 92%</text>

  <rect x="232" y="456" width="340" height="44" fill="#0f172a" rx="4"/>
  <polyline points="245,488 279,484 313,486 347,478 381,480 415,474 449,478 483,470 517,476 551,468" fill="none" stroke="#3b82f6" stroke-width="2.5"/>
  <circle cx="245" cy="488" r="2" fill="#3b82f6"/><circle cx="551" cy="468" r="2" fill="#3b82f6"/>
  <line x1="232" y1="462" x2="572" y2="462" stroke="#f59e0b" stroke-width="1" stroke-dasharray="3"/>
  <text x="576" y="466" fill="#f59e0b" font-size="7">7d max</text>

  <!-- payment-gateway CPU (high, near limit) -->
  <text x="610" y="450" fill="#f59e0b" font-size="10" font-weight="600">payment-gateway — CPU (HIGH)</text>
  <text x="940" y="450" fill="#f59e0b" font-size="9" text-anchor="end">avg 95% | 7d max 105%</text>

  <rect x="610" y="456" width="340" height="44" fill="#0f172a" rx="4"/>
  <polyline points="623,478 657,474 691,472 725,470 759,466 793,464 827,462 861,460 895,458 929,456" fill="none" stroke="#f59e0b" stroke-width="2.5"/>
  <line x1="610" y1="460" x2="950" y2="460" stroke="#ef4444" stroke-width="1" stroke-dasharray="4"/>
  <text x="954" y="464" fill="#ef4444" font-size="7">100% limit</text>

  <!-- payment-processor Memory (OOMs) -->
  <text x="232" y="518" fill="#ef4444" font-size="10" font-weight="600">payment-processor — Memory (4 OOMs)</text>
  <text x="560" y="518" fill="#ef4444" font-size="9" text-anchor="end">avg 78% | 7d max 100%</text>

  <rect x="232" y="524" width="340" height="36" fill="#0f172a" rx="4"/>
  <polyline points="245,550 279,548 313,544 347,542 381,538 415,536 449,530 483,534 517,528 551,526" fill="none" stroke="#ef4444" stroke-width="2.5"/>
  <line x1="232" y1="530" x2="572" y2="530" stroke="#ef4444" stroke-width="1" stroke-dasharray="4"/>
  <text x="576" y="534" fill="#ef4444" font-size="7">limit</text>
  <!-- OOM markers -->
  <circle cx="381" cy="538" r="4" fill="#ef4444" stroke="#fca5a5" stroke-width="1.5"/>
  <text x="381" y="541" fill="#fca5a5" font-size="5" text-anchor="middle" font-weight="700">x2</text>
  <circle cx="517" cy="528" r="4" fill="#ef4444" stroke="#fca5a5" stroke-width="1.5"/>
  <text x="517" y="531" fill="#fca5a5" font-size="5" text-anchor="middle" font-weight="700">x2</text>

  <!-- ============================================================ -->
  <!-- SECTION 3: NAMESPACE QUOTA (project's namespace)             -->
  <!-- ============================================================ -->
  <rect x="216" y="578" width="968" height="160" fill="#1e293b" rx="8"/>
  <text x="232" y="600" fill="#94a3b8" font-size="11" font-weight="600">NAMESPACE QUOTA — payments (MT-03)</text>
  <text x="1168" y="600" fill="#64748b" font-size="10" text-anchor="end">quota: 3.0 CPU / 5.0 GiB</text>

  <!-- CPU quota -->
  <text x="232" y="628" fill="#94a3b8" font-size="10" font-weight="600">CPU QUOTA</text>

  <text x="248" y="650" fill="#cbd5e1" font-size="10">Current</text>
  <rect x="340" y="640" width="300" height="14" fill="#0f172a" rx="3"/>
  <rect x="340" y="640" width="210" height="14" fill="#3b82f6" rx="3"/>
  <text x="650" y="652" fill="#94a3b8" font-size="9">2.1 / 3.0 cores (70%)</text>

  <text x="248" y="672" fill="#cbd5e1" font-size="10">7d max</text>
  <rect x="340" y="662" width="300" height="14" fill="#0f172a" rx="3"/>
  <rect x="340" y="662" width="280" height="14" fill="#3b82f6" rx="3" opacity="0.5"/>
  <line x1="620" y1="658" x2="620" y2="680" stroke="#f59e0b" stroke-width="1.5"/>
  <text x="650" y="674" fill="#f59e0b" font-size="9">2.8 / 3.0 cores (93%) — near limit</text>

  <!-- Memory quota -->
  <text x="232" y="700" fill="#94a3b8" font-size="10" font-weight="600">MEMORY QUOTA</text>

  <text x="248" y="722" fill="#cbd5e1" font-size="10">Current</text>
  <rect x="340" y="712" width="300" height="14" fill="#0f172a" rx="3"/>
  <rect x="340" y="712" width="192" height="14" fill="#8b5cf6" rx="3"/>
  <text x="650" y="724" fill="#94a3b8" font-size="9">3.2 / 5.0 GiB (64%)</text>

  <text x="248" y="736" fill="#cbd5e1" font-size="10">7d max</text>
  <rect x="340" y="730" width="300" height="10" fill="#0f172a" rx="3"/>
  <rect x="340" y="730" width="246" height="10" fill="#8b5cf6" rx="3" opacity="0.5"/>
  <text x="650" y="738" fill="#94a3b8" font-size="9">4.1 / 5.0 GiB (82%)</text>

  <!-- ============================================================ -->
  <!-- SECTION 4: OOM EVENT LOG (scoped to payments namespace)      -->
  <!-- ============================================================ -->
  <rect x="216" y="750" width="968" height="150" fill="#1e293b" rx="8"/>
  <text x="232" y="772" fill="#94a3b8" font-size="11" font-weight="600">OOM KILLED EVENTS — payments namespace — LAST 7 DAYS (MT-05)</text>
  <rect x="680" y="760" width="36" height="18" fill="#450a0a" rx="3"/>
  <text x="698" y="773" fill="#ef4444" font-size="10" font-weight="700" text-anchor="middle">4</text>
  <text x="726" y="773" fill="#ef4444" font-size="10">events, all from payment-processor</text>

  <!-- OOM table -->
  <rect x="232" y="782" width="936" height="18" fill="#0f172a" rx="3"/>
  <text x="248" y="795" fill="#64748b" font-size="8" font-weight="600">TIMESTAMP</text>
  <text x="400" y="795" fill="#64748b" font-size="8" font-weight="600">POD</text>
  <text x="640" y="795" fill="#64748b" font-size="8" font-weight="600">CONTAINER</text>
  <text x="780" y="795" fill="#64748b" font-size="8" font-weight="600">MEM AT KILL</text>
  <text x="900" y="795" fill="#64748b" font-size="8" font-weight="600">LIMIT</text>
  <text x="1000" y="795" fill="#64748b" font-size="8" font-weight="600">REGION</text>
  <text x="1100" y="795" fill="#64748b" font-size="8" font-weight="600">RESTART #</text>

  <text x="248" y="820" fill="#94a3b8" font-size="10">2026-03-22 13:41 UTC</text>
  <text x="400" y="820" fill="#cbd5e1" font-size="10">payment-processor-7d4f8b-xk2p1</text>
  <text x="640" y="820" fill="#ef4444" font-size="10" font-weight="500">processor</text>
  <text x="780" y="820" fill="#ef4444" font-size="10">768 MiB</text>
  <text x="900" y="820" fill="#94a3b8" font-size="10">768 MiB</text>
  <text x="1000" y="820" fill="#94a3b8" font-size="10">East</text>
  <text x="1100" y="820" fill="#f59e0b" font-size="10">#3</text>

  <text x="248" y="842" fill="#94a3b8" font-size="10">2026-03-22 11:18 UTC</text>
  <text x="400" y="842" fill="#cbd5e1" font-size="10">payment-processor-7d4f8b-mn9q3</text>
  <text x="640" y="842" fill="#ef4444" font-size="10" font-weight="500">processor</text>
  <text x="780" y="842" fill="#ef4444" font-size="10">768 MiB</text>
  <text x="900" y="842" fill="#94a3b8" font-size="10">768 MiB</text>
  <text x="1000" y="842" fill="#94a3b8" font-size="10">West</text>
  <text x="1100" y="842" fill="#f59e0b" font-size="10">#2</text>

  <text x="700" y="870" fill="#64748b" font-size="10" text-anchor="middle">+ 2 earlier events (2026-03-19)</text>

  <!-- Insight -->
  <rect x="232" y="880" width="936" height="18" fill="#451a03" rx="3" opacity="0.4"/>
  <text x="248" y="893" fill="#fbbf24" font-size="9" font-weight="600">Insight:</text>
  <text x="300" y="893" fill="#fbbf24" font-size="9">All 4 OOMs from the processor container hitting 768 MiB limit. Consider increasing memory limit or investigating leak.</text>

  <!-- ============================================================ -->
  <!-- LEGEND                                                       -->
  <!-- ============================================================ -->
  <rect x="216" y="912" width="968" height="36" fill="#1e293b" rx="8"/>
  <text x="232" y="933" fill="#94a3b8" font-size="10" font-weight="600">LEGEND:</text>
  <rect x="298" y="924" width="10" height="10" fill="#3b82f6" rx="1"/><text x="314" y="933" fill="#cbd5e1" font-size="9">Within limit</text>
  <rect x="410" y="924" width="10" height="10" fill="#f59e0b" rx="1"/><text x="426" y="933" fill="#cbd5e1" font-size="9">Near limit (>85%)</text>
  <rect x="530" y="924" width="10" height="10" fill="#ef4444" rx="1"/><text x="546" y="933" fill="#cbd5e1" font-size="9">Over / OOM</text>
  <rect x="630" y="924" width="38" height="12" fill="#0f172a" rx="2"/><text x="649" y="933" fill="#3b82f6" font-size="7" font-weight="600" text-anchor="middle">Deploy</text>
  <text x="676" y="933" fill="#cbd5e1" font-size="9">Deployment</text>
  <rect x="756" y="924" width="50" height="12" fill="#0f172a" rx="2"/><text x="781" y="933" fill="#f59e0b" font-size="7" font-weight="600" text-anchor="middle">CronJob</text>
  <text x="814" y="933" fill="#cbd5e1" font-size="9">CronJob/Job</text>
  <circle cx="905" cy="930" r="4" fill="#ef4444" stroke="#fca5a5" stroke-width="1"/>
  <text x="916" y="933" fill="#cbd5e1" font-size="9">OOM event</text>

  <!-- Mockup label -->
  <rect x="216" y="960" width="968" height="52" fill="none" stroke="#334155" stroke-width="1" stroke-dasharray="4" rx="8"/>
  <text x="700" y="982" fill="#475569" font-size="12" text-anchor="middle" font-style="italic">Mockup 4/6 — CPU &amp; Memory Metrics (Project View — payments)</text>
  <text x="700" y="1000" fill="#475569" font-size="11" text-anchor="middle">Workload-level: Deployment/Job granularity, container drill-down, scoped OOMs, namespace quota (MT-01 thru MT-05)</text>
</svg>