<svg xmlns="http://www.w3.org/2000/svg" viewBox="0 0 1200 1060" font-family="Inter, -apple-system, sans-serif">
  <defs>
    <style>
      .bg { fill: #0f172a; }
      .sidebar { fill: #1e293b; }
      .divider { stroke: #334155; stroke-width: 1; }
    </style>
  </defs>

  <rect width="1200" height="1060" class="bg"/>

  <!-- Sidebar -->
  <rect x="0" y="0" width="200" height="1060" class="sidebar"/>
  <text x="24" y="36" fill="#f8fafc" font-size="16" font-weight="700">GitOps Dashboard</text>
  <text x="24" y="52" fill="#94a3b8" font-size="12">Platform Observability</text>
  <line x1="16" y1="68" x2="184" y2="68" class="divider"/>
  <text x="40" y="93" fill="#cbd5e1" font-size="13">Overview</text>
  <text x="40" y="125" fill="#cbd5e1" font-size="13">App Status</text>
  <text x="40" y="157" fill="#cbd5e1" font-size="13">Image Promotion</text>
  <rect x="8" y="168" width="184" height="32" fill="#1d4ed8" rx="6" opacity="0.3"/>
  <text x="40" y="189" fill="#38bdf8" font-size="13" font-weight="600">Metrics</text>
  <text x="40" y="221" fill="#cbd5e1" font-size="13">Network Status</text>

  <!-- Top Bar -->
  <rect x="216" y="12" width="968" height="44" fill="#1e293b" rx="8"/>
  <text x="232" y="28" fill="#94a3b8" font-size="11" font-weight="600">Environment</text>
  <rect x="232" y="34" width="36" height="18" rx="6" fill="#334155"/><text x="237" y="47" fill="#e2e8f0" font-size="11" font-weight="500">ALL</text>
  <rect x="274" y="34" width="36" height="18" rx="6" fill="#334155"/><text x="279" y="47" fill="#e2e8f0" font-size="11" font-weight="500">DEV</text>
  <rect x="316" y="34" width="50" height="18" rx="6" fill="#334155"/><text x="321" y="47" fill="#e2e8f0" font-size="11" font-weight="500">STAGE</text>
  <rect x="372" y="34" width="44" height="18" rx="6" fill="#1d4ed8"/><text x="377" y="47" fill="#e2e8f0" font-size="11" font-weight="500">PROD</text>

  <line x1="432" y1="18" x2="432" y2="50" class="divider"/>
  <text x="448" y="28" fill="#94a3b8" font-size="11" font-weight="600">Region</text>
  <rect x="448" y="34" width="42" height="18" rx="6" fill="#1d4ed8"/><text x="453" y="47" fill="#e2e8f0" font-size="11" font-weight="500">BOTH</text>

  <text x="1060" y="40" fill="#64748b" font-size="10">Prometheus: 45s ago</text>

  <!-- Page Title -->
  <text x="232" y="86" fill="#f8fafc" font-size="18" font-weight="700">CPU &amp; Memory Metrics</text>
  <text x="232" y="102" fill="#94a3b8" font-size="12">PROD — East US + West US — Request/Limit ratios, Quota utilization, OOM tracking</text>

  <!-- ============================================================ -->
  <!-- SECTION 1: REQUEST / LIMIT RATIO TABLE                       -->
  <!-- ============================================================ -->
  <rect x="216" y="114" width="968" height="230" fill="#1e293b" rx="8"/>
  <text x="232" y="138" fill="#94a3b8" font-size="11" font-weight="600">REQUEST / LIMIT RATIO BY NAMESPACE</text>
  <text x="1168" y="138" fill="#64748b" font-size="10" text-anchor="end">PROD — Both Regions</text>

  <!-- Column headers — two header rows -->
  <rect x="232" y="146" width="936" height="32" fill="#0f172a" rx="4"/>

  <text x="248" y="167" fill="#64748b" font-size="9" font-weight="600">NAMESPACE</text>

  <!-- CPU group header -->
  <rect x="370" y="148" width="260" height="12" fill="#1d4ed8" rx="2" opacity="0.2"/>
  <text x="500" y="158" fill="#3b82f6" font-size="8" font-weight="700" text-anchor="middle">CPU</text>
  <text x="405" y="174" fill="#64748b" font-size="8" font-weight="600" text-anchor="middle">CURRENT</text>
  <text x="405" y="174" fill="#64748b" font-size="8" font-weight="600" text-anchor="middle">CURRENT</text>
  <text x="500" y="174" fill="#64748b" font-size="8" font-weight="600" text-anchor="middle">REQ/LIM</text>
  <text x="590" y="174" fill="#64748b" font-size="8" font-weight="600" text-anchor="middle">7d MAX</text>

  <!-- Memory group header -->
  <rect x="650" y="148" width="260" height="12" fill="#7c3aed" rx="2" opacity="0.2"/>
  <text x="780" y="158" fill="#8b5cf6" font-size="8" font-weight="700" text-anchor="middle">MEMORY</text>
  <text x="685" y="174" fill="#64748b" font-size="8" font-weight="600" text-anchor="middle">CURRENT</text>
  <text x="780" y="174" fill="#64748b" font-size="8" font-weight="600" text-anchor="middle">REQ/LIM</text>
  <text x="870" y="174" fill="#64748b" font-size="8" font-weight="600" text-anchor="middle">7d MAX</text>

  <!-- OOM column -->
  <text x="960" y="167" fill="#64748b" font-size="8" font-weight="600" text-anchor="middle">OOMs</text>
  <text x="960" y="174" fill="#64748b" font-size="7" text-anchor="middle">(7d)</text>

  <!-- Status -->
  <text x="1050" y="167" fill="#64748b" font-size="8" font-weight="600" text-anchor="middle">STATUS</text>

  <line x1="232" y1="180" x2="1168" y2="180" class="divider"/>

  <!-- Row 1: payments — healthy -->
  <rect x="232" y="182" width="936" height="28" fill="#1e293b"/>
  <text x="248" y="200" fill="#e2e8f0" font-size="11" font-weight="500">payments</text>

  <!-- CPU Current usage -->
  <text x="405" y="200" fill="#cbd5e1" font-size="10" text-anchor="middle">2.1 cores</text>
  <!-- CPU Req/Lim ratio bar -->
  <rect x="460" y="192" width="80" height="10" fill="#0f172a" rx="2"/>
  <rect x="460" y="192" width="56" height="10" fill="#3b82f6" rx="2"/>
  <text x="500" y="208" fill="#94a3b8" font-size="8" text-anchor="middle">2.1/3.0 (70%)</text>
  <!-- CPU 7d max -->
  <text x="590" y="200" fill="#94a3b8" font-size="10" text-anchor="middle">2.8 (93%)</text>

  <!-- Memory Current usage -->
  <text x="685" y="200" fill="#cbd5e1" font-size="10" text-anchor="middle">3.2 GiB</text>
  <!-- Memory Req/Lim ratio bar -->
  <rect x="740" y="192" width="80" height="10" fill="#0f172a" rx="2"/>
  <rect x="740" y="192" width="51" height="10" fill="#8b5cf6" rx="2"/>
  <text x="780" y="208" fill="#94a3b8" font-size="8" text-anchor="middle">3.2/5.0 (64%)</text>
  <!-- Memory 7d max -->
  <text x="870" y="200" fill="#94a3b8" font-size="10" text-anchor="middle">4.1 (82%)</text>

  <!-- OOMs -->
  <text x="960" y="200" fill="#22c55e" font-size="10" font-weight="600" text-anchor="middle">0</text>

  <!-- Status -->
  <rect x="1020" y="190" width="50" height="18" fill="#052e16" rx="3"/>
  <text x="1045" y="203" fill="#22c55e" font-size="9" font-weight="600" text-anchor="middle">OK</text>

  <!-- Row 2: orders — has OOMs -->
  <line x1="248" y1="214" x2="1152" y2="214" stroke="#1e293b" stroke-width="0.5"/>
  <rect x="232" y="216" width="936" height="28" fill="#172032"/>
  <text x="248" y="234" fill="#e2e8f0" font-size="11" font-weight="500">orders</text>

  <text x="405" y="234" fill="#cbd5e1" font-size="10" text-anchor="middle">1.56 cores</text>
  <rect x="460" y="226" width="80" height="10" fill="#0f172a" rx="2"/>
  <rect x="460" y="226" width="42" height="10" fill="#3b82f6" rx="2"/>
  <text x="500" y="242" fill="#94a3b8" font-size="8" text-anchor="middle">1.56/3.0 (52%)</text>
  <text x="590" y="234" fill="#94a3b8" font-size="10" text-anchor="middle">2.4 (80%)</text>

  <text x="685" y="234" fill="#cbd5e1" font-size="10" text-anchor="middle">3.12 GiB</text>
  <rect x="740" y="226" width="80" height="10" fill="#0f172a" rx="2"/>
  <rect x="740" y="226" width="62" height="10" fill="#8b5cf6" rx="2"/>
  <text x="780" y="242" fill="#94a3b8" font-size="8" text-anchor="middle">3.12/4.0 (78%)</text>
  <text x="870" y="234" fill="#f59e0b" font-size="10" font-weight="500" text-anchor="middle">3.9 (98%)</text>

  <!-- OOMs — warning -->
  <rect x="940" y="224" width="40" height="18" fill="#451a03" rx="3"/>
  <text x="960" y="237" fill="#f59e0b" font-size="10" font-weight="700" text-anchor="middle">3</text>

  <rect x="1010" y="224" width="70" height="18" fill="#451a03" rx="3"/>
  <text x="1045" y="237" fill="#f59e0b" font-size="9" font-weight="600" text-anchor="middle">OOM WARN</text>

  <!-- Row 3: identity — healthy -->
  <rect x="232" y="248" width="936" height="28" fill="#1e293b"/>
  <text x="248" y="266" fill="#e2e8f0" font-size="11" font-weight="500">identity</text>

  <text x="405" y="266" fill="#cbd5e1" font-size="10" text-anchor="middle">0.76 cores</text>
  <rect x="460" y="258" width="80" height="10" fill="#0f172a" rx="2"/>
  <rect x="460" y="258" width="30" height="10" fill="#3b82f6" rx="2"/>
  <text x="500" y="274" fill="#94a3b8" font-size="8" text-anchor="middle">0.76/2.0 (38%)</text>
  <text x="590" y="266" fill="#94a3b8" font-size="10" text-anchor="middle">1.2 (60%)</text>

  <text x="685" y="266" fill="#cbd5e1" font-size="10" text-anchor="middle">1.35 GiB</text>
  <rect x="740" y="258" width="80" height="10" fill="#0f172a" rx="2"/>
  <rect x="740" y="258" width="36" height="10" fill="#8b5cf6" rx="2"/>
  <text x="780" y="274" fill="#94a3b8" font-size="8" text-anchor="middle">1.35/3.0 (45%)</text>
  <text x="870" y="266" fill="#94a3b8" font-size="10" text-anchor="middle">2.1 (70%)</text>

  <text x="960" y="266" fill="#22c55e" font-size="10" font-weight="600" text-anchor="middle">0</text>

  <rect x="1020" y="256" width="50" height="18" fill="#052e16" rx="3"/>
  <text x="1045" y="269" fill="#22c55e" font-size="9" font-weight="600" text-anchor="middle">OK</text>

  <!-- Row 4: platform — critical, OOMs -->
  <rect x="232" y="280" width="936" height="28" fill="#172032"/>
  <text x="248" y="298" fill="#e2e8f0" font-size="11" font-weight="500">platform</text>

  <text x="405" y="298" fill="#f59e0b" font-size="10" font-weight="500" text-anchor="middle">1.8 cores</text>
  <rect x="460" y="290" width="80" height="10" fill="#0f172a" rx="2"/>
  <rect x="460" y="290" width="72" height="10" fill="#f59e0b" rx="2"/>
  <text x="500" y="306" fill="#f59e0b" font-size="8" text-anchor="middle">1.8/2.0 (90%)</text>
  <text x="590" y="298" fill="#ef4444" font-size="10" font-weight="600" text-anchor="middle">2.1 (105%)</text>

  <text x="685" y="298" fill="#ef4444" font-size="10" font-weight="500" text-anchor="middle">3.44 GiB</text>
  <rect x="740" y="290" width="80" height="10" fill="#0f172a" rx="2"/>
  <rect x="740" y="290" width="69" height="10" fill="#ef4444" rx="2"/>
  <text x="780" y="306" fill="#ef4444" font-size="8" text-anchor="middle">3.44/4.0 (86%)</text>
  <text x="870" y="298" fill="#ef4444" font-size="10" font-weight="600" text-anchor="middle">4.2 (105%)</text>

  <!-- OOMs — critical -->
  <rect x="940" y="288" width="40" height="18" fill="#450a0a" rx="3"/>
  <text x="960" y="301" fill="#ef4444" font-size="10" font-weight="700" text-anchor="middle">12</text>

  <rect x="1010" y="288" width="70" height="18" fill="#450a0a" rx="3"/>
  <text x="1045" y="301" fill="#ef4444" font-size="9" font-weight="600" text-anchor="middle">CRITICAL</text>

  <!-- Row 5: monitoring — healthy -->
  <rect x="232" y="312" width="936" height="28" fill="#1e293b"/>
  <text x="248" y="330" fill="#e2e8f0" font-size="11" font-weight="500">monitoring</text>

  <text x="405" y="330" fill="#cbd5e1" font-size="10" text-anchor="middle">0.5 cores</text>
  <rect x="460" y="322" width="80" height="10" fill="#0f172a" rx="2"/>
  <rect x="460" y="322" width="20" height="10" fill="#3b82f6" rx="2"/>
  <text x="500" y="338" fill="#94a3b8" font-size="8" text-anchor="middle">0.5/2.0 (25%)</text>
  <text x="590" y="330" fill="#94a3b8" font-size="10" text-anchor="middle">0.9 (45%)</text>

  <text x="685" y="330" fill="#cbd5e1" font-size="10" text-anchor="middle">1.68 GiB</text>
  <rect x="740" y="322" width="80" height="10" fill="#0f172a" rx="2"/>
  <rect x="740" y="322" width="45" height="10" fill="#8b5cf6" rx="2"/>
  <text x="780" y="338" fill="#94a3b8" font-size="8" text-anchor="middle">1.68/3.0 (56%)</text>
  <text x="870" y="330" fill="#94a3b8" font-size="10" text-anchor="middle">2.3 (77%)</text>

  <text x="960" y="330" fill="#22c55e" font-size="10" font-weight="600" text-anchor="middle">0</text>

  <rect x="1020" y="320" width="50" height="18" fill="#052e16" rx="3"/>
  <text x="1045" y="333" fill="#22c55e" font-size="9" font-weight="600" text-anchor="middle">OK</text>

  <!-- ============================================================ -->
  <!-- SECTION 2: SPARKLINE TRENDS                                  -->
  <!-- ============================================================ -->
  <rect x="216" y="356" width="968" height="170" fill="#1e293b" rx="8"/>
  <text x="232" y="380" fill="#94a3b8" font-size="11" font-weight="600">TREND — LAST 10 INTERVALS</text>
  <text x="1168" y="380" fill="#64748b" font-size="10" text-anchor="end">Sparklines show request/limit ratio over time</text>

  <!-- CPU Sparkline for payments -->
  <text x="232" y="404" fill="#cbd5e1" font-size="11" font-weight="500">payments — CPU req/lim</text>
  <text x="560" y="404" fill="#64748b" font-size="10" text-anchor="end">avg 70% | 7d max 93%</text>

  <rect x="232" y="410" width="340" height="50" fill="#0f172a" rx="4"/>
  <line x1="232" y1="425" x2="572" y2="425" stroke="#1e293b" stroke-width="0.5"/>
  <line x1="232" y1="440" x2="572" y2="440" stroke="#1e293b" stroke-width="0.5"/>
  <polyline points="245,445 279,440 313,443 347,433 381,435 415,427 449,431 483,423 517,429 551,421" fill="none" stroke="#3b82f6" stroke-width="2.5"/>
  <circle cx="245" cy="445" r="2.5" fill="#3b82f6"/>
  <circle cx="279" cy="440" r="2.5" fill="#3b82f6"/>
  <circle cx="313" cy="443" r="2.5" fill="#3b82f6"/>
  <circle cx="347" cy="433" r="2.5" fill="#3b82f6"/>
  <circle cx="381" cy="435" r="2.5" fill="#3b82f6"/>
  <circle cx="415" cy="427" r="2.5" fill="#3b82f6"/>
  <circle cx="449" cy="431" r="2.5" fill="#3b82f6"/>
  <circle cx="483" cy="423" r="2.5" fill="#3b82f6"/>
  <circle cx="517" cy="429" r="2.5" fill="#3b82f6"/>
  <circle cx="551" cy="421" r="2.5" fill="#3b82f6"/>
  <!-- 7d max marker line -->
  <line x1="232" y1="415" x2="572" y2="415" stroke="#f59e0b" stroke-width="1" stroke-dasharray="3"/>
  <text x="576" y="419" fill="#f59e0b" font-size="8">7d max</text>

  <!-- Memory Sparkline for payments -->
  <text x="610" y="404" fill="#cbd5e1" font-size="11" font-weight="500">payments — Mem req/lim</text>
  <text x="940" y="404" fill="#64748b" font-size="10" text-anchor="end">avg 64% | 7d max 82%</text>

  <rect x="610" y="410" width="340" height="50" fill="#0f172a" rx="4"/>
  <line x1="610" y1="425" x2="950" y2="425" stroke="#1e293b" stroke-width="0.5"/>
  <line x1="610" y1="440" x2="950" y2="440" stroke="#1e293b" stroke-width="0.5"/>
  <polyline points="623,438 657,436 691,440 725,433 759,436 793,442 827,438 861,444 895,440 929,446" fill="none" stroke="#8b5cf6" stroke-width="2.5"/>
  <circle cx="623" cy="438" r="2.5" fill="#8b5cf6"/>
  <circle cx="657" cy="436" r="2.5" fill="#8b5cf6"/>
  <circle cx="691" cy="440" r="2.5" fill="#8b5cf6"/>
  <circle cx="725" cy="433" r="2.5" fill="#8b5cf6"/>
  <circle cx="759" cy="436" r="2.5" fill="#8b5cf6"/>
  <circle cx="793" cy="442" r="2.5" fill="#8b5cf6"/>
  <circle cx="827" cy="438" r="2.5" fill="#8b5cf6"/>
  <circle cx="861" cy="444" r="2.5" fill="#8b5cf6"/>
  <circle cx="895" cy="440" r="2.5" fill="#8b5cf6"/>
  <circle cx="929" cy="446" r="2.5" fill="#8b5cf6"/>
  <line x1="610" y1="421" x2="950" y2="421" stroke="#f59e0b" stroke-width="1" stroke-dasharray="3"/>
  <text x="954" y="425" fill="#f59e0b" font-size="8">7d max</text>

  <!-- Platform CPU sparkline (high + exceeds limit) -->
  <text x="232" y="482" fill="#ef4444" font-size="11" font-weight="600">platform — CPU req/lim (OVER LIMIT)</text>
  <text x="560" y="482" fill="#ef4444" font-size="10" text-anchor="end">avg 90% | 7d max 105%</text>

  <rect x="232" y="488" width="340" height="30" fill="#0f172a" rx="4"/>
  <polyline points="245,512 279,508 313,504 347,506 381,500 415,496 449,494 483,492 517,490 551,488" fill="none" stroke="#ef4444" stroke-width="2.5"/>
  <!-- 100% limit line -->
  <line x1="232" y1="494" x2="572" y2="494" stroke="#ef4444" stroke-width="1" stroke-dasharray="4"/>
  <text x="576" y="498" fill="#ef4444" font-size="8">100% limit</text>

  <!-- Platform Memory sparkline -->
  <text x="610" y="482" fill="#ef4444" font-size="11" font-weight="600">platform — Mem req/lim (12 OOMs)</text>
  <text x="940" y="482" fill="#ef4444" font-size="10" text-anchor="end">avg 86% | 7d max 105%</text>

  <rect x="610" y="488" width="340" height="30" fill="#0f172a" rx="4"/>
  <polyline points="623,510 657,506 691,504 725,502 759,500 793,498 827,496 861,494 895,490 929,488" fill="none" stroke="#ef4444" stroke-width="2.5"/>
  <line x1="610" y1="494" x2="950" y2="494" stroke="#ef4444" stroke-width="1" stroke-dasharray="4"/>
  <text x="954" y="498" fill="#ef4444" font-size="8">100% limit</text>
  <!-- OOM event markers -->
  <circle cx="725" cy="502" r="4" fill="#ef4444" stroke="#fca5a5" stroke-width="1.5"/>
  <text x="725" y="505" fill="#fca5a5" font-size="6" text-anchor="middle" font-weight="700">x3</text>
  <circle cx="861" cy="494" r="4" fill="#ef4444" stroke="#fca5a5" stroke-width="1.5"/>
  <text x="861" y="497" fill="#fca5a5" font-size="6" text-anchor="middle" font-weight="700">x5</text>
  <circle cx="929" cy="488" r="4" fill="#ef4444" stroke="#fca5a5" stroke-width="1.5"/>
  <text x="929" y="491" fill="#fca5a5" font-size="6" text-anchor="middle" font-weight="700">x4</text>

  <!-- ============================================================ -->
  <!-- SECTION 3: NAMESPACE QUOTA — CURRENT + WEEKLY MAX            -->
  <!-- ============================================================ -->
  <rect x="216" y="538" width="968" height="250" fill="#1e293b" rx="8"/>
  <text x="232" y="562" fill="#94a3b8" font-size="11" font-weight="600">NAMESPACE RESOURCE QUOTA UTILIZATION</text>
  <text x="1168" y="562" fill="#64748b" font-size="10" text-anchor="end">Current vs 7-day max</text>

  <!-- Headers -->
  <rect x="232" y="570" width="936" height="32" fill="#0f172a" rx="4"/>

  <text x="248" y="591" fill="#64748b" font-size="9" font-weight="600">NAMESPACE</text>

  <!-- CPU Quota columns -->
  <rect x="355" y="572" width="240" height="12" fill="#1d4ed8" rx="2" opacity="0.2"/>
  <text x="475" y="582" fill="#3b82f6" font-size="8" font-weight="700" text-anchor="middle">CPU QUOTA</text>
  <text x="400" y="598" fill="#64748b" font-size="8" font-weight="600" text-anchor="middle">CURRENT</text>
  <text x="510" y="598" fill="#64748b" font-size="8" font-weight="600" text-anchor="middle">7d MAX</text>

  <!-- Memory Quota columns -->
  <rect x="600" y="572" width="240" height="12" fill="#7c3aed" rx="2" opacity="0.2"/>
  <text x="720" y="582" fill="#8b5cf6" font-size="8" font-weight="700" text-anchor="middle">MEMORY QUOTA</text>
  <text x="645" y="598" fill="#64748b" font-size="8" font-weight="600" text-anchor="middle">CURRENT</text>
  <text x="755" y="598" fill="#64748b" font-size="8" font-weight="600" text-anchor="middle">7d MAX</text>

  <text x="880" y="591" fill="#64748b" font-size="8" font-weight="600" text-anchor="middle">OOMs (7d)</text>
  <text x="990" y="591" fill="#64748b" font-size="8" font-weight="600" text-anchor="middle">STATUS</text>

  <line x1="232" y1="604" x2="1168" y2="604" class="divider"/>

  <!-- Quota Row 1: payments -->
  <rect x="232" y="606" width="936" height="40" fill="#1e293b"/>
  <text x="248" y="626" fill="#e2e8f0" font-size="11" font-weight="500">payments</text>
  <text x="248" y="640" fill="#64748b" font-size="9">quota: 3.0 CPU / 5.0 GiB</text>

  <!-- CPU Quota current bar -->
  <rect x="355" y="618" width="130" height="10" fill="#0f172a" rx="2"/>
  <rect x="355" y="618" width="91" height="10" fill="#3b82f6" rx="2"/>
  <text x="400" y="640" fill="#94a3b8" font-size="8" text-anchor="middle">2.1/3.0 (70%)</text>
  <!-- CPU Quota 7d max bar -->
  <rect x="465" y="618" width="130" height="10" fill="#0f172a" rx="2"/>
  <rect x="465" y="618" width="121" height="10" fill="#3b82f6" rx="2" opacity="0.6"/>
  <line x1="586" y1="614" x2="586" y2="632" stroke="#f59e0b" stroke-width="1.5"/>
  <text x="510" y="640" fill="#94a3b8" font-size="8" text-anchor="middle">2.8/3.0 (93%)</text>

  <!-- Memory Quota current bar -->
  <rect x="600" y="618" width="130" height="10" fill="#0f172a" rx="2"/>
  <rect x="600" y="618" width="83" height="10" fill="#8b5cf6" rx="2"/>
  <text x="645" y="640" fill="#94a3b8" font-size="8" text-anchor="middle">3.2/5.0 (64%)</text>
  <!-- Memory Quota 7d max bar -->
  <rect x="710" y="618" width="130" height="10" fill="#0f172a" rx="2"/>
  <rect x="710" y="618" width="107" height="10" fill="#8b5cf6" rx="2" opacity="0.6"/>
  <text x="755" y="640" fill="#94a3b8" font-size="8" text-anchor="middle">4.1/5.0 (82%)</text>

  <text x="880" y="630" fill="#22c55e" font-size="10" font-weight="600" text-anchor="middle">0</text>

  <rect x="960" y="620" width="60" height="18" fill="#052e16" rx="3"/>
  <text x="990" y="633" fill="#22c55e" font-size="9" font-weight="600" text-anchor="middle">OK</text>

  <!-- Quota Row 2: orders (OOMs, near limit on 7d max) -->
  <line x1="248" y1="648" x2="1152" y2="648" stroke="#334155" stroke-width="0.5"/>
  <rect x="232" y="650" width="936" height="40" fill="#172032"/>
  <text x="248" y="670" fill="#e2e8f0" font-size="11" font-weight="500">orders</text>
  <text x="248" y="684" fill="#64748b" font-size="9">quota: 3.0 CPU / 4.0 GiB</text>

  <rect x="355" y="662" width="130" height="10" fill="#0f172a" rx="2"/>
  <rect x="355" y="662" width="68" height="10" fill="#3b82f6" rx="2"/>
  <text x="400" y="684" fill="#94a3b8" font-size="8" text-anchor="middle">1.56/3.0 (52%)</text>
  <rect x="465" y="662" width="130" height="10" fill="#0f172a" rx="2"/>
  <rect x="465" y="662" width="104" height="10" fill="#3b82f6" rx="2" opacity="0.6"/>
  <text x="510" y="684" fill="#94a3b8" font-size="8" text-anchor="middle">2.4/3.0 (80%)</text>

  <rect x="600" y="662" width="130" height="10" fill="#0f172a" rx="2"/>
  <rect x="600" y="662" width="101" height="10" fill="#8b5cf6" rx="2"/>
  <text x="645" y="684" fill="#94a3b8" font-size="8" text-anchor="middle">3.12/4.0 (78%)</text>
  <rect x="710" y="662" width="130" height="10" fill="#0f172a" rx="2"/>
  <rect x="710" y="662" width="127" height="10" fill="#f59e0b" rx="2" opacity="0.6"/>
  <line x1="837" y1="658" x2="837" y2="676" stroke="#ef4444" stroke-width="1.5"/>
  <text x="755" y="684" fill="#f59e0b" font-size="8" text-anchor="middle">3.9/4.0 (98%)</text>

  <rect x="860" y="662" width="40" height="18" fill="#451a03" rx="3"/>
  <text x="880" y="675" fill="#f59e0b" font-size="10" font-weight="700" text-anchor="middle">3</text>

  <rect x="955" y="662" width="70" height="18" fill="#451a03" rx="3"/>
  <text x="990" y="675" fill="#f59e0b" font-size="9" font-weight="600" text-anchor="middle">OOM WARN</text>

  <!-- Quota Row 3: platform (critical, over quota on 7d max) -->
  <line x1="248" y1="692" x2="1152" y2="692" stroke="#334155" stroke-width="0.5"/>
  <rect x="232" y="694" width="936" height="40" fill="#1e293b"/>
  <text x="248" y="714" fill="#e2e8f0" font-size="11" font-weight="500">platform</text>
  <text x="248" y="728" fill="#64748b" font-size="9">quota: 2.0 CPU / 4.0 GiB</text>

  <rect x="355" y="706" width="130" height="10" fill="#0f172a" rx="2"/>
  <rect x="355" y="706" width="117" height="10" fill="#f59e0b" rx="2"/>
  <text x="400" y="728" fill="#f59e0b" font-size="8" text-anchor="middle">1.8/2.0 (90%)</text>
  <rect x="465" y="706" width="130" height="10" fill="#0f172a" rx="2"/>
  <rect x="465" y="706" width="130" height="10" fill="#ef4444" rx="2" opacity="0.6"/>
  <text x="510" y="728" fill="#ef4444" font-size="8" font-weight="600" text-anchor="middle">2.1/2.0 (105%)</text>

  <rect x="600" y="706" width="130" height="10" fill="#0f172a" rx="2"/>
  <rect x="600" y="706" width="112" height="10" fill="#ef4444" rx="2"/>
  <text x="645" y="728" fill="#ef4444" font-size="8" text-anchor="middle">3.44/4.0 (86%)</text>
  <rect x="710" y="706" width="130" height="10" fill="#0f172a" rx="2"/>
  <rect x="710" y="706" width="130" height="10" fill="#ef4444" rx="2" opacity="0.6"/>
  <text x="755" y="728" fill="#ef4444" font-size="8" font-weight="600" text-anchor="middle">4.2/4.0 (105%)</text>

  <rect x="860" y="706" width="40" height="18" fill="#450a0a" rx="3"/>
  <text x="880" y="719" fill="#ef4444" font-size="10" font-weight="700" text-anchor="middle">12</text>

  <rect x="955" y="706" width="70" height="18" fill="#450a0a" rx="3"/>
  <text x="990" y="719" fill="#ef4444" font-size="9" font-weight="600" text-anchor="middle">CRITICAL</text>

  <line x1="248" y1="736" x2="1152" y2="736" stroke="#334155" stroke-width="0.5"/>

  <!-- Quota Row 4: identity — healthy -->
  <rect x="232" y="738" width="936" height="34" fill="#172032"/>
  <text x="248" y="758" fill="#e2e8f0" font-size="11" font-weight="500">identity</text>
  <text x="248" y="770" fill="#64748b" font-size="9">quota: 2.0 CPU / 3.0 GiB</text>

  <rect x="355" y="750" width="130" height="10" fill="#0f172a" rx="2"/>
  <rect x="355" y="750" width="49" height="10" fill="#3b82f6" rx="2"/>
  <text x="400" y="770" fill="#94a3b8" font-size="8" text-anchor="middle">0.76/2.0 (38%)</text>
  <rect x="465" y="750" width="130" height="10" fill="#0f172a" rx="2"/>
  <rect x="465" y="750" width="78" height="10" fill="#3b82f6" rx="2" opacity="0.6"/>
  <text x="510" y="770" fill="#94a3b8" font-size="8" text-anchor="middle">1.2/2.0 (60%)</text>

  <rect x="600" y="750" width="130" height="10" fill="#0f172a" rx="2"/>
  <rect x="600" y="750" width="59" height="10" fill="#8b5cf6" rx="2"/>
  <text x="645" y="770" fill="#94a3b8" font-size="8" text-anchor="middle">1.35/3.0 (45%)</text>
  <rect x="710" y="750" width="130" height="10" fill="#0f172a" rx="2"/>
  <rect x="710" y="750" width="91" height="10" fill="#8b5cf6" rx="2" opacity="0.6"/>
  <text x="755" y="770" fill="#94a3b8" font-size="8" text-anchor="middle">2.1/3.0 (70%)</text>

  <text x="880" y="762" fill="#22c55e" font-size="10" font-weight="600" text-anchor="middle">0</text>

  <rect x="960" y="752" width="60" height="18" fill="#052e16" rx="3"/>
  <text x="990" y="765" fill="#22c55e" font-size="9" font-weight="600" text-anchor="middle">OK</text>

  <!-- ============================================================ -->
  <!-- SECTION 4: OOM EVENT LOG                                     -->
  <!-- ============================================================ -->
  <rect x="216" y="800" width="968" height="130" fill="#1e293b" rx="8"/>
  <text x="232" y="824" fill="#94a3b8" font-size="11" font-weight="600">OOM KILLED EVENTS — LAST 7 DAYS</text>
  <rect x="565" y="812" width="40" height="18" fill="#450a0a" rx="3"/>
  <text x="585" y="825" fill="#ef4444" font-size="10" font-weight="700" text-anchor="middle">15</text>
  <text x="615" y="825" fill="#ef4444" font-size="10">total across PROD</text>

  <!-- OOM table header -->
  <rect x="232" y="834" width="936" height="18" fill="#0f172a" rx="3"/>
  <text x="248" y="847" fill="#64748b" font-size="8" font-weight="600">TIMESTAMP</text>
  <text x="380" y="847" fill="#64748b" font-size="8" font-weight="600">NAMESPACE</text>
  <text x="490" y="847" fill="#64748b" font-size="8" font-weight="600">POD</text>
  <text x="720" y="847" fill="#64748b" font-size="8" font-weight="600">CONTAINER</text>
  <text x="860" y="847" fill="#64748b" font-size="8" font-weight="600">MEMORY AT KILL</text>
  <text x="1010" y="847" fill="#64748b" font-size="8" font-weight="600">LIMIT</text>
  <text x="1100" y="847" fill="#64748b" font-size="8" font-weight="600">REGION</text>

  <!-- OOM event rows -->
  <text x="248" y="870" fill="#94a3b8" font-size="10">2026-03-22 13:41 UTC</text>
  <text x="380" y="870" fill="#ef4444" font-size="10" font-weight="500">platform</text>
  <text x="490" y="870" fill="#cbd5e1" font-size="10">platform-api-7d4f8b-xk2p1</text>
  <text x="720" y="870" fill="#cbd5e1" font-size="10">api</text>
  <text x="860" y="870" fill="#ef4444" font-size="10">512 MiB</text>
  <text x="1010" y="870" fill="#94a3b8" font-size="10">512 MiB</text>
  <text x="1100" y="870" fill="#94a3b8" font-size="10">East</text>

  <text x="248" y="890" fill="#94a3b8" font-size="10">2026-03-22 12:18 UTC</text>
  <text x="380" y="890" fill="#ef4444" font-size="10" font-weight="500">platform</text>
  <text x="490" y="890" fill="#cbd5e1" font-size="10">platform-worker-5c8a2-mn9q3</text>
  <text x="720" y="890" fill="#cbd5e1" font-size="10">worker</text>
  <text x="860" y="890" fill="#ef4444" font-size="10">1.0 GiB</text>
  <text x="1010" y="890" fill="#94a3b8" font-size="10">1.0 GiB</text>
  <text x="1100" y="890" fill="#94a3b8" font-size="10">West</text>

  <text x="248" y="910" fill="#94a3b8" font-size="10">2026-03-22 09:54 UTC</text>
  <text x="380" y="910" fill="#f59e0b" font-size="10" font-weight="500">orders</text>
  <text x="490" y="910" fill="#cbd5e1" font-size="10">order-processor-8f2b1-vw4k7</text>
  <text x="720" y="910" fill="#cbd5e1" font-size="10">processor</text>
  <text x="860" y="910" fill="#f59e0b" font-size="10">768 MiB</text>
  <text x="1010" y="910" fill="#94a3b8" font-size="10">768 MiB</text>
  <text x="1100" y="910" fill="#94a3b8" font-size="10">East</text>

  <text x="700" y="926" fill="#64748b" font-size="10" text-anchor="middle">... 12 more events (click to expand)</text>

  <!-- ============================================================ -->
  <!-- LEGEND                                                       -->
  <!-- ============================================================ -->
  <rect x="216" y="942" width="968" height="42" fill="#1e293b" rx="8"/>
  <text x="232" y="963" fill="#94a3b8" font-size="10" font-weight="600">LEGEND:</text>

  <rect x="298" y="954" width="10" height="10" fill="#3b82f6" rx="1"/>
  <text x="314" y="963" fill="#cbd5e1" font-size="9">Current (within limit)</text>

  <rect x="440" y="954" width="10" height="10" fill="#f59e0b" rx="1"/>
  <text x="456" y="963" fill="#cbd5e1" font-size="9">Near limit (>85%)</text>

  <rect x="564" y="954" width="10" height="10" fill="#ef4444" rx="1"/>
  <text x="580" y="963" fill="#cbd5e1" font-size="9">Over limit / Critical</text>

  <rect x="706" y="954" width="10" height="10" fill="#3b82f6" rx="1" opacity="0.5"/>
  <text x="722" y="963" fill="#cbd5e1" font-size="9">7-day max (faded bar)</text>

  <line x1="845" y1="954" x2="865" y2="954" stroke="#f59e0b" stroke-width="1" stroke-dasharray="3"/>
  <text x="874" y="963" fill="#cbd5e1" font-size="9">7d max line (sparkline)</text>

  <circle cx="1000" cy="960" r="4" fill="#ef4444" stroke="#fca5a5" stroke-width="1.5"/>
  <text x="1012" y="963" fill="#cbd5e1" font-size="9">OOM event marker</text>

  <!-- Mockup label -->
  <rect x="216" y="996" width="968" height="52" fill="none" stroke="#334155" stroke-width="1" stroke-dasharray="4" rx="8"/>
  <text x="700" y="1018" fill="#475569" font-size="12" text-anchor="middle" font-style="italic">Mockup 4/6 — CPU &amp; Memory Metrics (Module 3) — Updated</text>
  <text x="700" y="1036" fill="#475569" font-size="11" text-anchor="middle">Persona: SRE/Ops, Tenant Developer — Request/Limit ratios (current + 7d max), Namespace quota (current + 7d max), OOM tracking</text>
</svg>