<svg xmlns="http://www.w3.org/2000/svg" viewBox="0 0 1200 1240" font-family="Inter, -apple-system, sans-serif">
  <defs>
    <style>
      .bg { fill: #0f172a; }
      .sidebar { fill: #1e293b; }
      .divider { stroke: #334155; stroke-width: 1; }
    </style>
  </defs>

  <rect width="1200" height="1240" class="bg"/>

  <!-- Sidebar -->
  <rect x="0" y="0" width="200" height="1240" class="sidebar"/>
  <text x="24" y="36" fill="#f8fafc" font-size="16" font-weight="700">GitOps Dashboard</text>
  <text x="24" y="52" fill="#94a3b8" font-size="12">Platform Observability</text>
  <line x1="16" y1="68" x2="184" y2="68" class="divider"/>
  <text x="40" y="93" fill="#cbd5e1" font-size="13">Overview</text>
  <text x="40" y="125" fill="#cbd5e1" font-size="13">App Status</text>
  <text x="40" y="157" fill="#cbd5e1" font-size="13">Image Promotion</text>
  <text x="40" y="189" fill="#cbd5e1" font-size="13">Metrics</text>
  <rect x="8" y="200" width="184" height="32" fill="#1d4ed8" rx="6" opacity="0.3"/>
  <text x="40" y="221" fill="#38bdf8" font-size="13" font-weight="600">Network Status</text>

  <!-- Top Bar -->
  <rect x="216" y="12" width="968" height="44" fill="#1e293b" rx="8"/>
  <text x="232" y="28" fill="#94a3b8" font-size="11" font-weight="600">Environment</text>
  <rect x="232" y="34" width="36" height="18" rx="6" fill="#1d4ed8"/><text x="237" y="47" fill="#e2e8f0" font-size="11" font-weight="500">ALL</text>
  <rect x="274" y="34" width="36" height="18" rx="6" fill="#334155"/><text x="279" y="47" fill="#e2e8f0" font-size="11" font-weight="500">DEV</text>
  <rect x="316" y="34" width="50" height="18" rx="6" fill="#334155"/><text x="321" y="47" fill="#e2e8f0" font-size="11" font-weight="500">STAGE</text>
  <rect x="372" y="34" width="44" height="18" rx="6" fill="#334155"/><text x="377" y="47" fill="#e2e8f0" font-size="11" font-weight="500">PROD</text>

  <line x1="432" y1="18" x2="432" y2="50" class="divider"/>
  <text x="448" y="28" fill="#94a3b8" font-size="11" font-weight="600">Region</text>
  <rect x="448" y="34" width="42" height="18" rx="6" fill="#1d4ed8"/><text x="453" y="47" fill="#e2e8f0" font-size="11" font-weight="500">BOTH</text>

  <text x="1010" y="40" fill="#64748b" font-size="10">Network: 98s ago | Cilium Flows: 30s ago</text>

  <!-- Page Title -->
  <text x="232" y="86" fill="#f8fafc" font-size="18" font-weight="700">Namespace Network Status</text>
  <text x="232" y="102" fill="#94a3b8" font-size="12">NetworkPolicy coverage, Cilium L3/L4 flow drops &amp; resets across all clusters</text>

  <!-- ============================================================ -->
  <!-- SECTION 1: SUMMARY CARDS (row 1 — policy coverage)           -->
  <!-- ============================================================ -->
  <rect x="216" y="114" width="186" height="74" fill="#1e293b" rx="8"/>
  <text x="232" y="132" fill="#94a3b8" font-size="9" font-weight="600">TOTAL NAMESPACES</text>
  <text x="232" y="162" fill="#f8fafc" font-size="26" font-weight="700">78</text>
  <text x="268" y="162" fill="#64748b" font-size="10">across 6 clusters</text>

  <rect x="414" y="114" width="186" height="74" fill="#1e293b" rx="8"/>
  <text x="430" y="132" fill="#94a3b8" font-size="9" font-weight="600">WITH NETWORK POLICIES</text>
  <text x="430" y="162" fill="#22c55e" font-size="26" font-weight="700">73</text>
  <text x="462" y="162" fill="#64748b" font-size="10">(94%)</text>

  <rect x="612" y="114" width="186" height="74" fill="#1e293b" rx="8"/>
  <text x="628" y="132" fill="#94a3b8" font-size="9" font-weight="600">EGRESS RESTRICTED</text>
  <text x="628" y="162" fill="#22c55e" font-size="26" font-weight="700">68</text>
  <text x="660" y="162" fill="#64748b" font-size="10">(87%)</text>

  <rect x="810" y="114" width="186" height="74" fill="#451a03" rx="8" opacity="0.6"/>
  <text x="826" y="132" fill="#f59e0b" font-size="9" font-weight="600">OPEN EGRESS</text>
  <text x="826" y="162" fill="#f59e0b" font-size="26" font-weight="700">10</text>
  <text x="858" y="162" fill="#fbbf24" font-size="10">(13%)</text>

  <!-- Summary card row 2 — Cilium flow stats -->
  <rect x="216" y="196" width="186" height="74" fill="#1e293b" rx="8"/>
  <text x="232" y="214" fill="#94a3b8" font-size="9" font-weight="600">INGRESS DROPS (1h)</text>
  <text x="232" y="244" fill="#ef4444" font-size="26" font-weight="700">1,247</text>
  <text x="300" y="244" fill="#64748b" font-size="10">L3/L4</text>
  <text x="232" y="260" fill="#ef4444" font-size="9">+38% vs prior hour</text>

  <rect x="414" y="196" width="186" height="74" fill="#1e293b" rx="8"/>
  <text x="430" y="214" fill="#94a3b8" font-size="9" font-weight="600">EGRESS DROPS (1h)</text>
  <text x="430" y="244" fill="#f59e0b" font-size="26" font-weight="700">342</text>
  <text x="486" y="244" fill="#64748b" font-size="10">L3/L4</text>
  <text x="430" y="260" fill="#22c55e" font-size="9">-12% vs prior hour</text>

  <rect x="612" y="196" width="186" height="74" fill="#1e293b" rx="8"/>
  <text x="628" y="214" fill="#94a3b8" font-size="9" font-weight="600">CONNECTION RESETS (1h)</text>
  <text x="628" y="244" fill="#f59e0b" font-size="26" font-weight="700">89</text>
  <text x="660" y="244" fill="#64748b" font-size="10">TCP RST</text>
  <text x="628" y="260" fill="#f59e0b" font-size="9">+5% vs prior hour</text>

  <!-- 5th card — most-impacted namespace callout -->
  <rect x="810" y="196" width="374" height="74" fill="#450a0a" rx="8" opacity="0.5"/>
  <text x="826" y="214" fill="#ef4444" font-size="9" font-weight="600">HIGHEST DROP RATE</text>
  <text x="826" y="238" fill="#ef4444" font-size="14" font-weight="700">payments (PROD-East)</text>
  <text x="826" y="256" fill="#fca5a5" font-size="10">847 ingress drops/hr — deny-all-ingress blocking unknown source 10.244.3.0/24</text>

  <!-- ============================================================ -->
  <!-- SECTION 2: POLICY + FLOW GRID (combined table)               -->
  <!-- ============================================================ -->
  <rect x="216" y="282" width="968" height="36" fill="#0f172a"/>

  <text x="232" y="304" fill="#94a3b8" font-size="9" font-weight="600">NAMESPACE</text>

  <!-- Cluster policy status columns -->
  <text x="356" y="296" fill="#94a3b8" font-size="8" font-weight="600" text-anchor="middle">DEV</text>
  <text x="334" y="312" fill="#64748b" font-size="8" text-anchor="middle">E</text>
  <text x="378" y="312" fill="#64748b" font-size="8" text-anchor="middle">W</text>

  <text x="444" y="296" fill="#94a3b8" font-size="8" font-weight="600" text-anchor="middle">STAGE</text>
  <text x="422" y="312" fill="#64748b" font-size="8" text-anchor="middle">E</text>
  <text x="466" y="312" fill="#64748b" font-size="8" text-anchor="middle">W</text>

  <text x="530" y="296" fill="#94a3b8" font-size="8" font-weight="600" text-anchor="middle">PROD</text>
  <text x="508" y="312" fill="#64748b" font-size="8" text-anchor="middle">E</text>
  <text x="552" y="312" fill="#64748b" font-size="8" text-anchor="middle">W</text>

  <line x1="580" y1="286" x2="580" y2="318" class="divider"/>

  <text x="604" y="304" fill="#94a3b8" font-size="9" font-weight="600">POLICIES</text>
  <text x="676" y="304" fill="#94a3b8" font-size="9" font-weight="600">EGRESS</text>

  <line x1="740" y1="286" x2="740" y2="318" class="divider"/>

  <!-- Cilium flow columns -->
  <rect x="748" y="286" width="152" height="12" fill="#ef4444" rx="2" opacity="0.1"/>
  <text x="824" y="296" fill="#ef4444" font-size="8" font-weight="700" text-anchor="middle">CILIUM L3/L4 DROPS (1h)</text>
  <text x="783" y="312" fill="#64748b" font-size="8" text-anchor="middle">INGRESS</text>
  <text x="867" y="312" fill="#64748b" font-size="8" text-anchor="middle">EGRESS</text>

  <line x1="908" y1="286" x2="908" y2="318" class="divider"/>

  <text x="940" y="304" fill="#94a3b8" font-size="8" font-weight="600" text-anchor="middle">RESETS</text>

  <line x1="972" y1="286" x2="972" y2="318" class="divider"/>

  <text x="1060" y="304" fill="#94a3b8" font-size="9" font-weight="600" text-anchor="middle">TOP DROP REASON</text>

  <line x1="216" y1="318" x2="1184" y2="318" class="divider"/>

  <!-- Row 1: payments — policies ok, HIGH ingress drops -->
  <rect x="216" y="320" width="968" height="38" fill="#1e293b"/>
  <text x="232" y="342" fill="#e2e8f0" font-size="11" font-weight="500">payments</text>

  <circle cx="334" cy="339" r="6" fill="#052e16"/><text x="334" y="343" fill="#22c55e" font-size="8" font-weight="700" text-anchor="middle">&#x2713;</text>
  <circle cx="378" cy="339" r="6" fill="#052e16"/><text x="378" y="343" fill="#22c55e" font-size="8" font-weight="700" text-anchor="middle">&#x2713;</text>
  <circle cx="422" cy="339" r="6" fill="#052e16"/><text x="422" y="343" fill="#22c55e" font-size="8" font-weight="700" text-anchor="middle">&#x2713;</text>
  <circle cx="466" cy="339" r="6" fill="#052e16"/><text x="466" y="343" fill="#22c55e" font-size="8" font-weight="700" text-anchor="middle">&#x2713;</text>
  <circle cx="508" cy="339" r="6" fill="#052e16"/><text x="508" y="343" fill="#22c55e" font-size="8" font-weight="700" text-anchor="middle">&#x2713;</text>
  <circle cx="552" cy="339" r="6" fill="#052e16"/><text x="552" y="343" fill="#22c55e" font-size="8" font-weight="700" text-anchor="middle">&#x2713;</text>

  <text x="604" y="342" fill="#22c55e" font-size="10" font-weight="500">3</text>
  <rect x="656" y="332" width="64" height="16" fill="#052e16" rx="3"/>
  <text x="688" y="344" fill="#22c55e" font-size="9" font-weight="600" text-anchor="middle">Restricted</text>

  <!-- High ingress drops — red -->
  <rect x="752" y="332" width="52" height="16" fill="#450a0a" rx="3"/>
  <text x="778" y="344" fill="#ef4444" font-size="10" font-weight="700" text-anchor="middle">847</text>
  <!-- Low egress drops -->
  <text x="867" y="344" fill="#94a3b8" font-size="10" text-anchor="middle">12</text>
  <!-- Resets -->
  <text x="940" y="344" fill="#94a3b8" font-size="10" text-anchor="middle">3</text>
  <!-- Top drop reason -->
  <text x="985" y="342" fill="#fca5a5" font-size="9">DENIED by deny-all-ingress</text>

  <!-- Row 2: orders — policies ok, moderate drops -->
  <rect x="216" y="358" width="968" height="38" fill="#172032"/>
  <text x="232" y="380" fill="#e2e8f0" font-size="11" font-weight="500">orders</text>

  <circle cx="334" cy="377" r="6" fill="#052e16"/><text x="334" y="381" fill="#22c55e" font-size="8" font-weight="700" text-anchor="middle">&#x2713;</text>
  <circle cx="378" cy="377" r="6" fill="#052e16"/><text x="378" y="381" fill="#22c55e" font-size="8" font-weight="700" text-anchor="middle">&#x2713;</text>
  <circle cx="422" cy="377" r="6" fill="#052e16"/><text x="422" y="381" fill="#22c55e" font-size="8" font-weight="700" text-anchor="middle">&#x2713;</text>
  <circle cx="466" cy="377" r="6" fill="#052e16"/><text x="466" y="381" fill="#22c55e" font-size="8" font-weight="700" text-anchor="middle">&#x2713;</text>
  <circle cx="508" cy="377" r="6" fill="#052e16"/><text x="508" y="381" fill="#22c55e" font-size="8" font-weight="700" text-anchor="middle">&#x2713;</text>
  <circle cx="552" cy="377" r="6" fill="#052e16"/><text x="552" y="381" fill="#22c55e" font-size="8" font-weight="700" text-anchor="middle">&#x2713;</text>

  <text x="604" y="380" fill="#22c55e" font-size="10" font-weight="500">2</text>
  <rect x="656" y="370" width="64" height="16" fill="#052e16" rx="3"/>
  <text x="688" y="382" fill="#22c55e" font-size="9" font-weight="600" text-anchor="middle">Restricted</text>

  <text x="778" y="382" fill="#f59e0b" font-size="10" font-weight="500" text-anchor="middle">156</text>
  <text x="867" y="382" fill="#94a3b8" font-size="10" text-anchor="middle">8</text>
  <text x="940" y="382" fill="#f59e0b" font-size="10" text-anchor="middle">24</text>
  <text x="985" y="380" fill="#fbbf24" font-size="9">DENIED by deny-egress-external</text>

  <!-- Row 3: monitoring — open egress DEV-E, some drops -->
  <rect x="216" y="396" width="968" height="38" fill="#1e293b"/>
  <text x="232" y="418" fill="#e2e8f0" font-size="11" font-weight="500">monitoring</text>

  <circle cx="334" cy="415" r="6" fill="#451a03"/><text x="334" y="419" fill="#f59e0b" font-size="8" font-weight="700" text-anchor="middle">!</text>
  <circle cx="378" cy="415" r="6" fill="#052e16"/><text x="378" y="419" fill="#22c55e" font-size="8" font-weight="700" text-anchor="middle">&#x2713;</text>
  <circle cx="422" cy="415" r="6" fill="#052e16"/><text x="422" y="419" fill="#22c55e" font-size="8" font-weight="700" text-anchor="middle">&#x2713;</text>
  <circle cx="466" cy="415" r="6" fill="#052e16"/><text x="466" y="419" fill="#22c55e" font-size="8" font-weight="700" text-anchor="middle">&#x2713;</text>
  <circle cx="508" cy="415" r="6" fill="#052e16"/><text x="508" y="419" fill="#22c55e" font-size="8" font-weight="700" text-anchor="middle">&#x2713;</text>
  <circle cx="552" cy="415" r="6" fill="#052e16"/><text x="552" y="419" fill="#22c55e" font-size="8" font-weight="700" text-anchor="middle">&#x2713;</text>

  <text x="604" y="418" fill="#f59e0b" font-size="10" font-weight="500">1</text>
  <rect x="656" y="408" width="72" height="16" fill="#451a03" rx="3"/>
  <text x="692" y="420" fill="#f59e0b" font-size="9" font-weight="600" text-anchor="middle">Open Egress</text>

  <text x="778" y="420" fill="#94a3b8" font-size="10" text-anchor="middle">41</text>
  <text x="867" y="420" fill="#f59e0b" font-size="10" font-weight="500" text-anchor="middle">187</text>
  <text x="940" y="420" fill="#94a3b8" font-size="10" text-anchor="middle">7</text>
  <text x="985" y="418" fill="#fbbf24" font-size="9">Egress to 0.0.0.0/0 (no restriction DEV-E)</text>

  <!-- Row 4: sandbox — no policies, high drops -->
  <rect x="216" y="434" width="968" height="38" fill="#172032"/>
  <text x="232" y="456" fill="#e2e8f0" font-size="11" font-weight="500">sandbox</text>

  <circle cx="334" cy="453" r="6" fill="#451a03"/><text x="334" y="457" fill="#f59e0b" font-size="8" font-weight="700" text-anchor="middle">!</text>
  <circle cx="378" cy="453" r="6" fill="#451a03"/><text x="378" y="457" fill="#f59e0b" font-size="8" font-weight="700" text-anchor="middle">!</text>
  <circle cx="422" cy="453" r="6" fill="#334155"/><text x="422" y="457" fill="#64748b" font-size="8" text-anchor="middle">--</text>
  <circle cx="466" cy="453" r="6" fill="#334155"/><text x="466" y="457" fill="#64748b" font-size="8" text-anchor="middle">--</text>
  <circle cx="508" cy="453" r="6" fill="#334155"/><text x="508" y="457" fill="#64748b" font-size="8" text-anchor="middle">--</text>
  <circle cx="552" cy="453" r="6" fill="#334155"/><text x="552" y="457" fill="#64748b" font-size="8" text-anchor="middle">--</text>

  <text x="604" y="456" fill="#ef4444" font-size="10" font-weight="500">0</text>
  <rect x="656" y="446" width="72" height="16" fill="#451a03" rx="3"/>
  <text x="692" y="458" fill="#f59e0b" font-size="9" font-weight="600" text-anchor="middle">Open Egress</text>

  <text x="778" y="458" fill="#94a3b8" font-size="10" text-anchor="middle">0</text>
  <text x="867" y="458" fill="#94a3b8" font-size="10" text-anchor="middle">0</text>
  <text x="940" y="458" fill="#94a3b8" font-size="10" text-anchor="middle">0</text>
  <text x="985" y="456" fill="#64748b" font-size="9">No policies — all traffic allowed</text>

  <!-- Row 5: test-infra — open egress STAGE-E, resets -->
  <rect x="216" y="472" width="968" height="38" fill="#1e293b"/>
  <text x="232" y="494" fill="#e2e8f0" font-size="11" font-weight="500">test-infra</text>

  <circle cx="334" cy="491" r="6" fill="#052e16"/><text x="334" y="495" fill="#22c55e" font-size="8" font-weight="700" text-anchor="middle">&#x2713;</text>
  <circle cx="378" cy="491" r="6" fill="#052e16"/><text x="378" y="495" fill="#22c55e" font-size="8" font-weight="700" text-anchor="middle">&#x2713;</text>
  <circle cx="422" cy="491" r="6" fill="#451a03"/><text x="422" y="495" fill="#f59e0b" font-size="8" font-weight="700" text-anchor="middle">!</text>
  <circle cx="466" cy="491" r="6" fill="#052e16"/><text x="466" y="495" fill="#22c55e" font-size="8" font-weight="700" text-anchor="middle">&#x2713;</text>
  <circle cx="508" cy="491" r="6" fill="#052e16"/><text x="508" y="495" fill="#22c55e" font-size="8" font-weight="700" text-anchor="middle">&#x2713;</text>
  <circle cx="552" cy="491" r="6" fill="#052e16"/><text x="552" y="495" fill="#22c55e" font-size="8" font-weight="700" text-anchor="middle">&#x2713;</text>

  <text x="604" y="494" fill="#f59e0b" font-size="10" font-weight="500">2</text>
  <rect x="656" y="484" width="72" height="16" fill="#451a03" rx="3"/>
  <text x="692" y="496" fill="#f59e0b" font-size="9" font-weight="600" text-anchor="middle">Open Egress</text>

  <text x="778" y="496" fill="#94a3b8" font-size="10" text-anchor="middle">23</text>
  <text x="867" y="496" fill="#94a3b8" font-size="10" text-anchor="middle">67</text>
  <rect x="918" y="486" width="44" height="16" fill="#451a03" rx="3"/>
  <text x="940" y="498" fill="#f59e0b" font-size="10" font-weight="700" text-anchor="middle">41</text>
  <text x="985" y="494" fill="#fbbf24" font-size="9">TCP RST to ext svc (STAGE-E egress)</text>

  <!-- Row 6: identity — fully clean -->
  <rect x="216" y="510" width="968" height="38" fill="#172032"/>
  <text x="232" y="532" fill="#e2e8f0" font-size="11" font-weight="500">identity</text>

  <circle cx="334" cy="529" r="6" fill="#052e16"/><text x="334" y="533" fill="#22c55e" font-size="8" font-weight="700" text-anchor="middle">&#x2713;</text>
  <circle cx="378" cy="529" r="6" fill="#052e16"/><text x="378" y="533" fill="#22c55e" font-size="8" font-weight="700" text-anchor="middle">&#x2713;</text>
  <circle cx="422" cy="529" r="6" fill="#052e16"/><text x="422" y="533" fill="#22c55e" font-size="8" font-weight="700" text-anchor="middle">&#x2713;</text>
  <circle cx="466" cy="529" r="6" fill="#052e16"/><text x="466" y="533" fill="#22c55e" font-size="8" font-weight="700" text-anchor="middle">&#x2713;</text>
  <circle cx="508" cy="529" r="6" fill="#052e16"/><text x="508" y="533" fill="#22c55e" font-size="8" font-weight="700" text-anchor="middle">&#x2713;</text>
  <circle cx="552" cy="529" r="6" fill="#052e16"/><text x="552" y="533" fill="#22c55e" font-size="8" font-weight="700" text-anchor="middle">&#x2713;</text>

  <text x="604" y="532" fill="#22c55e" font-size="10" font-weight="500">4</text>
  <rect x="656" y="522" width="64" height="16" fill="#052e16" rx="3"/>
  <text x="688" y="534" fill="#22c55e" font-size="9" font-weight="600" text-anchor="middle">Restricted</text>

  <text x="778" y="534" fill="#94a3b8" font-size="10" text-anchor="middle">2</text>
  <text x="867" y="534" fill="#94a3b8" font-size="10" text-anchor="middle">0</text>
  <text x="940" y="534" fill="#94a3b8" font-size="10" text-anchor="middle">0</text>
  <text x="985" y="532" fill="#64748b" font-size="9">—</text>

  <!-- More rows -->
  <rect x="216" y="548" width="968" height="24" fill="#0f172a"/>
  <text x="700" y="564" fill="#64748b" font-size="10" text-anchor="middle">... 72 more namespaces</text>

  <!-- ============================================================ -->
  <!-- SECTION 3: CILIUM DROP/RESET SPARKLINES BY CLUSTER           -->
  <!-- ============================================================ -->
  <rect x="216" y="584" width="968" height="200" fill="#1e293b" rx="8"/>
  <text x="232" y="608" fill="#94a3b8" font-size="11" font-weight="600">CILIUM L3/L4 DROP RATE — LAST 1 HOUR (per 5-min bucket)</text>
  <text x="1168" y="608" fill="#64748b" font-size="10" text-anchor="end">All environments — Ingress drops</text>

  <!-- PROD-East sparkline (high drops) -->
  <text x="232" y="632" fill="#ef4444" font-size="10" font-weight="600">PROD-East</text>
  <text x="560" y="632" fill="#ef4444" font-size="9" text-anchor="end">847 drops/hr (spiking)</text>

  <rect x="232" y="638" width="340" height="44" fill="#0f172a" rx="4"/>
  <line x1="232" y1="652" x2="572" y2="652" stroke="#1e293b" stroke-width="0.5"/>
  <line x1="232" y1="666" x2="572" y2="666" stroke="#1e293b" stroke-width="0.5"/>
  <!-- Spike pattern -->
  <polyline points="246,674 274,672 302,670 330,668 358,664 386,658 414,648 442,640 470,644 498,638 526,642 554,636" fill="none" stroke="#ef4444" stroke-width="2.5"/>
  <circle cx="246" cy="674" r="2" fill="#ef4444"/>
  <circle cx="274" cy="672" r="2" fill="#ef4444"/>
  <circle cx="302" cy="670" r="2" fill="#ef4444"/>
  <circle cx="330" cy="668" r="2" fill="#ef4444"/>
  <circle cx="358" cy="664" r="2" fill="#ef4444"/>
  <circle cx="386" cy="658" r="2" fill="#ef4444"/>
  <circle cx="414" cy="648" r="2" fill="#ef4444"/>
  <circle cx="442" cy="640" r="2" fill="#ef4444"/>
  <circle cx="470" cy="644" r="2" fill="#ef4444"/>
  <circle cx="498" cy="638" r="2" fill="#ef4444"/>
  <circle cx="526" cy="642" r="2" fill="#ef4444"/>
  <circle cx="554" cy="636" r="2" fill="#ef4444"/>
  <!-- Baseline reference -->
  <line x1="232" y1="670" x2="572" y2="670" stroke="#334155" stroke-width="1" stroke-dasharray="3"/>
  <text x="576" y="674" fill="#334155" font-size="7">baseline</text>

  <!-- PROD-West sparkline (stable, low) -->
  <text x="610" y="632" fill="#22c55e" font-size="10" font-weight="500">PROD-West</text>
  <text x="940" y="632" fill="#64748b" font-size="9" text-anchor="end">34 drops/hr (normal)</text>

  <rect x="610" y="638" width="340" height="44" fill="#0f172a" rx="4"/>
  <line x1="610" y1="652" x2="950" y2="652" stroke="#1e293b" stroke-width="0.5"/>
  <line x1="610" y1="666" x2="950" y2="666" stroke="#1e293b" stroke-width="0.5"/>
  <polyline points="624,674 652,673 680,675 708,672 736,674 764,673 792,674 820,672 848,673 876,674 904,673 932,672" fill="none" stroke="#22c55e" stroke-width="2"/>
  <line x1="610" y1="670" x2="950" y2="670" stroke="#334155" stroke-width="1" stroke-dasharray="3"/>

  <!-- STAGE-East (moderate, resets) -->
  <text x="232" y="702" fill="#f59e0b" font-size="10" font-weight="500">STAGE-East</text>
  <text x="560" y="702" fill="#f59e0b" font-size="9" text-anchor="end">156 drops + 41 RST/hr</text>

  <rect x="232" y="708" width="340" height="44" fill="#0f172a" rx="4"/>
  <line x1="232" y1="722" x2="572" y2="722" stroke="#1e293b" stroke-width="0.5"/>
  <line x1="232" y1="736" x2="572" y2="736" stroke="#1e293b" stroke-width="0.5"/>
  <!-- Drops line (amber) -->
  <polyline points="246,740 274,738 302,736 330,738 358,734 386,732 414,736 442,730 470,734 498,728 526,732 554,726" fill="none" stroke="#f59e0b" stroke-width="2"/>
  <!-- Resets line (orange dashed) -->
  <polyline points="246,746 274,744 302,746 330,742 358,744 386,740 414,742 442,738 470,740 498,736 526,738 554,734" fill="none" stroke="#fb923c" stroke-width="1.5" stroke-dasharray="4"/>
  <line x1="232" y1="740" x2="572" y2="740" stroke="#334155" stroke-width="1" stroke-dasharray="3"/>
  <!-- Inline legend -->
  <line x1="580" y1="720" x2="596" y2="720" stroke="#f59e0b" stroke-width="2"/>
  <text x="602" y="724" fill="#f59e0b" font-size="8">drops</text>
  <line x1="580" y1="734" x2="596" y2="734" stroke="#fb923c" stroke-width="1.5" stroke-dasharray="4"/>
  <text x="602" y="738" fill="#fb923c" font-size="8">resets</text>

  <!-- DEV clusters (quiet) -->
  <text x="610" y="702" fill="#22c55e" font-size="10" font-weight="500">DEV-East / DEV-West</text>
  <text x="940" y="702" fill="#64748b" font-size="9" text-anchor="end">18 / 12 drops/hr (normal)</text>

  <rect x="610" y="708" width="340" height="44" fill="#0f172a" rx="4"/>
  <line x1="610" y1="722" x2="950" y2="722" stroke="#1e293b" stroke-width="0.5"/>
  <line x1="610" y1="736" x2="950" y2="736" stroke="#1e293b" stroke-width="0.5"/>
  <polyline points="624,744 652,742 680,744 708,743 736,744 764,742 792,744 820,743 848,742 876,744 904,743 932,742" fill="none" stroke="#22c55e" stroke-width="1.5"/>
  <polyline points="624,746 652,748 680,746 708,748 736,746 764,748 792,746 820,748 848,746 876,748 904,746 932,748" fill="none" stroke="#22c55e" stroke-width="1.5" stroke-dasharray="3"/>
  <line x1="610" y1="740" x2="950" y2="740" stroke="#334155" stroke-width="1" stroke-dasharray="3"/>

  <!-- ============================================================ -->
  <!-- SECTION 4: TOP DENIED CONNECTIONS (recent flow log)          -->
  <!-- ============================================================ -->
  <rect x="216" y="796" width="968" height="250" fill="#1e293b" rx="8"/>
  <text x="232" y="820" fill="#94a3b8" font-size="11" font-weight="600">TOP DENIED CONNECTIONS — CILIUM L3/L4 FLOW LOG</text>
  <text x="1168" y="820" fill="#64748b" font-size="10" text-anchor="end">Last 1 hour, grouped by source/dest namespace pair</text>

  <!-- Table header -->
  <rect x="232" y="828" width="936" height="20" fill="#0f172a" rx="3"/>
  <text x="248" y="842" fill="#64748b" font-size="8" font-weight="600">DIRECTION</text>
  <text x="322" y="842" fill="#64748b" font-size="8" font-weight="600">SRC NAMESPACE</text>
  <text x="448" y="842" fill="#64748b" font-size="8" font-weight="600">DST NAMESPACE</text>
  <text x="574" y="842" fill="#64748b" font-size="8" font-weight="600">PROTOCOL</text>
  <text x="640" y="842" fill="#64748b" font-size="8" font-weight="600">DST PORT</text>
  <text x="710" y="842" fill="#64748b" font-size="8" font-weight="600">DROPS</text>
  <text x="770" y="842" fill="#64748b" font-size="8" font-weight="600">RESETS</text>
  <text x="832" y="842" fill="#64748b" font-size="8" font-weight="600">CLUSTER</text>
  <text x="928" y="842" fill="#64748b" font-size="8" font-weight="600">POLICY VERDICT</text>

  <line x1="232" y1="850" x2="1168" y2="850" class="divider"/>

  <!-- Flow row 1: high-volume ingress deny -->
  <rect x="232" y="852" width="936" height="28" fill="#1e293b"/>
  <rect x="248" y="858" width="52" height="14" fill="#450a0a" rx="2"/>
  <text x="274" y="869" fill="#ef4444" font-size="8" font-weight="600" text-anchor="middle">INGRESS</text>
  <text x="322" y="870" fill="#fca5a5" font-size="10">kube-system</text>
  <text x="420" y="870" fill="#64748b" font-size="10">&#x2192;</text>
  <text x="448" y="870" fill="#ef4444" font-size="10" font-weight="500">payments</text>
  <text x="574" y="870" fill="#94a3b8" font-size="10">TCP</text>
  <text x="640" y="870" fill="#94a3b8" font-size="10">8080</text>
  <rect x="700" y="858" width="40" height="16" fill="#450a0a" rx="2"/>
  <text x="720" y="870" fill="#ef4444" font-size="10" font-weight="700" text-anchor="middle">623</text>
  <text x="780" y="870" fill="#94a3b8" font-size="10">0</text>
  <text x="832" y="870" fill="#94a3b8" font-size="10">PROD-E</text>
  <text x="928" y="870" fill="#fca5a5" font-size="9">deny-all-ingress</text>

  <!-- Flow row 2 -->
  <rect x="232" y="880" width="936" height="28" fill="#172032"/>
  <rect x="248" y="886" width="52" height="14" fill="#450a0a" rx="2"/>
  <text x="274" y="897" fill="#ef4444" font-size="8" font-weight="600" text-anchor="middle">INGRESS</text>
  <text x="322" y="898" fill="#fca5a5" font-size="10">10.244.3.0/24</text>
  <text x="420" y="898" fill="#64748b" font-size="10">&#x2192;</text>
  <text x="448" y="898" fill="#ef4444" font-size="10" font-weight="500">payments</text>
  <text x="574" y="898" fill="#94a3b8" font-size="10">TCP</text>
  <text x="640" y="898" fill="#94a3b8" font-size="10">443</text>
  <rect x="700" y="886" width="40" height="16" fill="#450a0a" rx="2"/>
  <text x="720" y="898" fill="#ef4444" font-size="10" font-weight="700" text-anchor="middle">224</text>
  <text x="780" y="898" fill="#94a3b8" font-size="10">0</text>
  <text x="832" y="898" fill="#94a3b8" font-size="10">PROD-E</text>
  <text x="928" y="898" fill="#fca5a5" font-size="9">deny-all-ingress</text>

  <!-- Flow row 3: egress deny with resets -->
  <rect x="232" y="908" width="936" height="28" fill="#1e293b"/>
  <rect x="248" y="914" width="48" height="14" fill="#451a03" rx="2"/>
  <text x="272" y="925" fill="#f59e0b" font-size="8" font-weight="600" text-anchor="middle">EGRESS</text>
  <text x="322" y="926" fill="#fbbf24" font-size="10">monitoring</text>
  <text x="420" y="926" fill="#64748b" font-size="10">&#x2192;</text>
  <text x="448" y="926" fill="#94a3b8" font-size="10">0.0.0.0/0 (external)</text>
  <text x="574" y="926" fill="#94a3b8" font-size="10">TCP</text>
  <text x="640" y="926" fill="#94a3b8" font-size="10">443</text>
  <text x="720" y="926" fill="#f59e0b" font-size="10" font-weight="500" text-anchor="middle">187</text>
  <text x="780" y="926" fill="#f59e0b" font-size="10" font-weight="500">7</text>
  <text x="832" y="926" fill="#94a3b8" font-size="10">DEV-E</text>
  <text x="928" y="926" fill="#fbbf24" font-size="9">none (open egress)</text>

  <!-- Flow row 4: egress resets -->
  <rect x="232" y="936" width="936" height="28" fill="#172032"/>
  <rect x="248" y="942" width="48" height="14" fill="#451a03" rx="2"/>
  <text x="272" y="953" fill="#f59e0b" font-size="8" font-weight="600" text-anchor="middle">EGRESS</text>
  <text x="322" y="954" fill="#fbbf24" font-size="10">test-infra</text>
  <text x="420" y="954" fill="#64748b" font-size="10">&#x2192;</text>
  <text x="448" y="954" fill="#94a3b8" font-size="10">ext-api.vendor.com</text>
  <text x="574" y="954" fill="#94a3b8" font-size="10">TCP</text>
  <text x="640" y="954" fill="#94a3b8" font-size="10">443</text>
  <text x="720" y="954" fill="#f59e0b" font-size="10" font-weight="500" text-anchor="middle">67</text>
  <rect x="760" y="942" width="40" height="16" fill="#451a03" rx="2"/>
  <text x="780" y="954" fill="#f59e0b" font-size="10" font-weight="700">41</text>
  <text x="832" y="954" fill="#94a3b8" font-size="10">STAGE-E</text>
  <text x="928" y="954" fill="#fbbf24" font-size="9">deny-egress (missing allow)</text>

  <!-- Flow row 5: ingress deny (orders) -->
  <rect x="232" y="964" width="936" height="28" fill="#1e293b"/>
  <rect x="248" y="970" width="52" height="14" fill="#451a03" rx="2"/>
  <text x="274" y="981" fill="#f59e0b" font-size="8" font-weight="600" text-anchor="middle">INGRESS</text>
  <text x="322" y="982" fill="#fbbf24" font-size="10">platform</text>
  <text x="420" y="982" fill="#64748b" font-size="10">&#x2192;</text>
  <text x="448" y="982" fill="#f59e0b" font-size="10" font-weight="500">orders</text>
  <text x="574" y="982" fill="#94a3b8" font-size="10">TCP</text>
  <text x="640" y="982" fill="#94a3b8" font-size="10">5432</text>
  <text x="720" y="982" fill="#f59e0b" font-size="10" font-weight="500" text-anchor="middle">156</text>
  <text x="780" y="982" fill="#f59e0b" font-size="10" font-weight="500">24</text>
  <text x="832" y="982" fill="#94a3b8" font-size="10">STAGE-E</text>
  <text x="928" y="982" fill="#fbbf24" font-size="9">deny-all-ingress (missing allow)</text>

  <!-- More flows -->
  <rect x="232" y="992" width="936" height="22" fill="#0f172a" rx="0"/>
  <text x="700" y="1007" fill="#64748b" font-size="10" text-anchor="middle">... 23 more source/dest pairs with drops in the last hour</text>

  <!-- Actionable insight callout -->
  <rect x="232" y="1018" width="936" height="24" fill="#451a03" rx="4" opacity="0.4"/>
  <text x="248" y="1034" fill="#fbbf24" font-size="10" font-weight="600">Insight:</text>
  <text x="306" y="1034" fill="#fbbf24" font-size="10">62% of PROD-East ingress drops target payments:8080 from kube-system — likely a missing allow rule for health checks</text>

  <!-- ============================================================ -->
  <!-- LEGEND                                                       -->
  <!-- ============================================================ -->
  <rect x="216" y="1056" width="968" height="54" fill="#1e293b" rx="8"/>
  <text x="232" y="1076" fill="#94a3b8" font-size="10" font-weight="600">LEGEND:</text>

  <circle cx="310" cy="1072" r="6" fill="#052e16"/><text x="310" y="1076" fill="#22c55e" font-size="8" font-weight="700" text-anchor="middle">&#x2713;</text>
  <text x="324" y="1076" fill="#cbd5e1" font-size="9">Policy present</text>

  <circle cx="430" cy="1072" r="6" fill="#451a03"/><text x="430" y="1076" fill="#f59e0b" font-size="8" font-weight="700" text-anchor="middle">!</text>
  <text x="444" y="1076" fill="#cbd5e1" font-size="9">No egress restriction</text>

  <circle cx="570" cy="1072" r="6" fill="#334155"/><text x="570" y="1076" fill="#64748b" font-size="8" text-anchor="middle">--</text>
  <text x="584" y="1076" fill="#cbd5e1" font-size="9">Not in cluster</text>

  <rect x="678" y="1066" width="40" height="14" fill="#450a0a" rx="2"/>
  <text x="698" y="1077" fill="#ef4444" font-size="8" font-weight="700" text-anchor="middle">N</text>
  <text x="726" y="1076" fill="#cbd5e1" font-size="9">High drop count</text>

  <text x="232" y="1098" fill="#94a3b8" font-size="9" font-weight="500">Data sources: NetworkPolicy objects via K8s API (network-connector) | Cilium L3/L4 flow metrics via Prometheus (hubble_flows_processed_total, hubble_drop_total)</text>

  <!-- Mockup label -->
  <rect x="216" y="1120" width="968" height="70" fill="none" stroke="#334155" stroke-width="1" stroke-dasharray="4" rx="8"/>
  <text x="700" y="1148" fill="#475569" font-size="12" text-anchor="middle" font-style="italic">Mockup 5/6 — Namespace Network Status (Module 4) — Updated</text>
  <text x="700" y="1166" fill="#475569" font-size="11" text-anchor="middle">Persona: Security Auditor, SRE — Policy coverage (NS-01/NS-02) + Cilium L3/L4 ingress/egress drops, TCP resets, denied flow log</text>
  <text x="700" y="1182" fill="#475569" font-size="10" text-anchor="middle">Note: Cilium flow data sourced from Prometheus via hubble metrics — extends prometheus-connector scope, not network-connector</text>
</svg>